<?xml version="1.0" encoding="utf-8"?>
<!-- Generator: Adobe Illustrator 21.1.0, SVG Export Plug-In . SVG Version: 6.00 Build 0)  -->
<svg version="1.1" id="Layer_1" xmlns="http://www.w3.org/2000/svg" xmlns:xlink="http://www.w3.org/1999/xlink" x="0px" y="0px"
	 viewBox="0 0 416.1 155.2" style="enable-background:new 0 0 416.1 155.2;" xml:space="preserve">
<style type="text/css">
	.st0{fill:#606060;}
	.st1{fill:none;}
</style>
<g>
	<path class="st0" d="M371.4,136.7c-1.8,1.8-3.8,2.7-5.9,2.7c-0.7,0-1.2-0.3-1.7-0.9c-0.5-0.6-0.8-1.3-1.1-2.2
		c-0.2-0.9-0.4-1.7-0.5-2.5s-0.2-1.5-0.2-2c0-1.4,0.5-3.1,1.4-5c0.9-1.9,2.1-3.7,3.4-5.3c1.4-1.6,2.8-3,4.3-4.2
		c1.5-1.1,2.9-1.7,4.1-1.7c2.2,0,3.3,2,3.3,6c0,2.5-0.9,5.5-2.6,9.1C374.7,132.9,373.2,134.9,371.4,136.7 M363.5,88.1
		c0-3.1,1.2-6.9,3.7-11.2c3.3-5.8,6.4-9.6,9.4-11.6s5.4-3,7.2-3c1.7,0,2.9,0.6,3.6,1.8c0.4,0.5,0.7,1.2,0.7,2c0,1.8-1.5,4.2-4.5,7
		s-7.2,6.9-12.8,12.4c-0.5,0.4-0.8,0.9-0.8,1.3s0.2,0.8,0.5,1s0.7,0.4,1,0.5c1.4,0.5,3,1,4.9,1.4c1.8,0.4,3.7,0.6,5.5,0.6
		c1.5,0,3-0.1,4.4-0.4s2.7-0.7,3.9-1.2c6.5-3,11.7-6.9,15.5-11.6s5.7-9.4,5.7-13.9c0-2.9-0.9-5.6-2.8-8c-1.8-2.4-4.8-4.2-8.8-5.4
		c-3.7-1.1-7.5-1.6-11.4-1.6c-5.6,0-10.9,1.1-15.7,3.3c-4.8,2.2-9.1,5.1-12.7,8.6c-3.6,3.5-6.6,7.4-8.9,11.6s-3.7,8.2-4.2,12.1
		c-0.1,0.7-0.2,1.3-0.2,2c-0.1,0.7-0.1,1.2-0.1,1.8c0,3.1,0.6,5.8,1.8,8c1.2,2.2,2.7,4,4.6,5.5s4,2.7,6.3,3.6s4.6,1.8,6.9,2.5l2,0.7
		c-4.6,3.8-8.5,7.8-12,12c-3.4,4.2-5.6,8.5-6.4,13.1c-0.3,1.8-0.5,3.5-0.5,5c0,2.4,0.4,4.6,1.1,6.8c0.7,2.1,1.7,4,3.1,5.6
		s3,2.9,5,3.8c2,0.9,4.3,1.4,6.9,1.4c1.5,0,3.2-0.2,5-0.5c2.4-0.5,5.1-1.8,8.1-3.7c3-2,5.9-4.3,8.5-7.2c2.7-2.8,4.9-6,6.7-9.4
		c1.8-3.5,2.7-7.1,2.7-10.7c0-2.8-0.7-5.6-2-8.4s-3.4-5.4-6.3-7.9c3.4-2.7,6-4.8,8.1-6.3c2-1.5,3.7-2.7,5.1-3.6s2.8-1.7,4.1-2.4
		s3-1.6,5-2.8c1.3-0.8,2.3-1.6,3.1-2.5c0.8-0.9,1.3-1.8,1.6-2.8c0.3-0.9,0.5-1.8,0.7-2.7c0.1-0.9,0.2-1.6,0.2-2.3s-0.3-1-0.8-1
		c-0.2,0-0.4,0.1-0.5,0.2c-1.1,0.4-2.9,1.2-5.5,2.3c-2.6,1.1-5.5,2.4-9,4.1c-3.4,1.6-7.1,3.5-11.1,5.7s-7.9,4.6-11.8,7.2
		c-0.3,0-0.9-0.1-1.6-0.3c-0.8-0.2-1.5-0.4-2.3-0.7c-0.8-0.2-1.5-0.5-2.1-0.7c-0.7-0.3-1.1-0.5-1.3-0.6
		C365.7,95.8,363.5,92.4,363.5,88.1 M316,55.8c-4.2,2.7-8.3,6.1-12.3,10.4s-7.8,9.1-11.2,14.5c-3.5,5.4-6.4,10.7-8.8,16.1
		s-4.1,10.4-5.1,15.2c-1,4.8-1.1,8.7-0.1,11.9c1.2,3.5,2.6,5.9,4.2,7.2s3.3,2,5,2c2.7,0,5.3-1,7.8-3s4.9-4.5,7.2-7.4
		c2.3-2.9,4.4-6,6.5-9.2s3.9-6,5.5-8.4c-0.9,2.9-1.5,6-2,9.1s-0.8,6.2-0.9,9.2s0.1,5.8,0.7,8.4c0.5,2.6,1.5,4.9,2.8,6.8
		c2,2.5,4,4.2,6.2,5c2.2,0.9,4.3,1.3,6.3,1.3s3.8-0.4,5.5-1.1c1.6-0.7,2.9-1.4,3.7-2.2c1.1-0.8,1.2-1.8,0.5-3.1
		c-1.5-2.1-2.8-4.9-3.8-8.5c-1-3.6-1.6-7.7-1.7-12.4c-0.1-4.7,0.3-9.7,1.3-15.1s2.7-10.8,5.2-16.4c0.2-0.3,0.4-0.7,0.4-1
		c0.1-0.3,0.1-0.6,0.2-0.8c0.2-0.2,0.3-0.4,0.3-0.5c0.4-0.9,0.3-1.6-0.3-2.3l-1-0.5c-3-1.2-5.9-1.4-8.5-0.7
		c-2.7,0.8-5.2,2.1-7.5,3.9s-4.5,4-6.5,6.4s-3.9,4.7-5.7,6.7c-1.8,2-3.4,3.6-5,4.8c-1.5,1.2-2.9,1.4-4.2,0.7
		c-0.9-0.4-1.2-1.7-0.9-3.8c0.3-2.1,1.1-4.5,2.4-7.1s3.1-5.2,5.5-7.8c2.3-2.6,5.1-4.7,8.4-6.3c3.3-1.6,6.9-2.5,11.1-2.5
		c4.1-0.1,8.6,1.2,13.3,3.7c1.6,0.9,3,0.8,4.1-0.2s1.9-2.5,2.2-4.6c0.3-2,0.3-4.3-0.2-6.8c-0.4-2.5-1.4-5-2.8-7.2
		c-1.5-2.3-3.5-4.2-6.1-5.8s-5.8-2.4-9.6-2.5C324.1,51.9,320.1,53.1,316,55.8 M316.8,44c-1.8,0.5-4.1,1.1-6.8,1.6
		c-2.7,0.5-5.6,1.1-8.9,1.6c-2.7,0.3-5.9,0.7-9.4,1.2c-3.6,0.5-7.5,0.8-11.9,1.1c3.8-7.8,6.6-14.3,8.5-19.4
		c1.9-5.2,2.5-8.6,1.9-10.3c-0.8-1.8-1.8-3.1-3.3-3.7c-1.4-0.6-2.7-0.9-3.7-0.9c-0.9-0.1-2,0.2-3.4,0.9c-1.4,0.7-3.1,2.1-5.2,4.3
		c-3.1,3.5-6.1,7.4-9,11.9c-2.8,4.5-5.6,10.1-8.5,16.9c-0.7,0.8-1.7,1.3-3.1,1.5c-1.4,0.3-2.9,0.3-4.6,0.2c-1.6-0.2-3.3-0.5-4.9-0.9
		c-1.6-0.4-2.9-1-3.9-1.6c-1.8-1.1-3.4-1.1-4.8,0c-1.4,1.1-2.4,2.6-3,4.6c-0.7,2-0.9,4-0.8,6.3c0.1,2.2,0.7,3.9,1.6,5.1
		c1.1,1.3,2.4,2.2,3.8,2.8c1.5,0.5,3,0.8,4.5,0.9s3-0.1,4.6-0.3c1.5-0.3,2.8-0.6,3.9-0.9c-0.4,1.2-0.9,2.6-1.4,4.2s-1,3.3-1.5,4.9
		s-1,3.2-1.5,4.8c-0.5,1.6-0.9,3-1.2,4.2c-0.3,1.1-0.7,2.5-1.1,4.3c-0.4,1.8-0.8,3.8-1.2,5.9c-0.4,2.2-0.8,4.5-1.1,7
		s-0.5,4.9-0.7,7.3c-0.4,6.7-0.1,12.5,0.9,17.3s2.5,8.9,4.4,12.2s4,6,6.4,8s4.8,3.5,7.2,4.5c2.4,1,4.7,1.5,6.8,1.5
		c2.1,0.1,3.7-0.1,5-0.6c2.7-1.1,5.2-2.5,7.6-4.3c2.3-1.8,4.3-3.6,5.9-5.4c1.6-1.8,2.6-3.3,3.2-4.6c0.5-1.3,0.5-2-0.2-2
		c-5.6-0.4-10.2-2.1-13.6-4.9c-3.4-2.8-6-6.4-7.7-10.7c-1.7-4.3-2.8-9-3.2-14.2c-0.4-5.2-0.3-10.3,0.3-15.4
		c0.6-5.1,1.5-9.9,2.7-14.5s2.4-8.4,3.7-11.4c4.6-0.5,9.1-1.2,13.6-2.1c4.5-0.9,8.8-1.9,12.9-3s7.8-2.4,11.3-3.7
		c3.5-1.4,6.5-2.8,9-4.3s4.2-2.9,5.1-4.1c0.9-1.2,1.4-2.2,1.5-3.1c0.1-1-0.3-1.8-1.1-2.6C320.9,42.9,318.9,43.5,316.8,44
		 M205.1,55.8c-4.2,2.7-8.3,6.1-12.3,10.4s-7.8,9.1-11.2,14.5c-3.5,5.4-6.4,10.7-8.8,16.1c-2.4,5.4-4.1,10.4-5.1,15.2
		c-1,4.8-1.1,8.7-0.1,11.9c1.2,3.5,2.6,5.9,4.2,7.2c1.6,1.3,3.3,2,5,2c2.7,0,5.3-1,7.8-3s4.9-4.5,7.2-7.4s4.4-6,6.5-9.2
		s3.9-6,5.5-8.4c-0.9,2.9-1.5,6-2,9.1s-0.8,6.2-0.9,9.2c-0.1,3,0.1,5.8,0.7,8.4c0.5,2.6,1.5,4.9,2.8,6.8c2,2.5,4,4.2,6.2,5
		c2.2,0.9,4.3,1.3,6.3,1.3s3.8-0.4,5.5-1.1c1.6-0.7,2.9-1.4,3.7-2.2c1.1-0.8,1.2-1.8,0.5-3.1c-1.5-2.1-2.8-4.9-3.8-8.5
		c-1-3.6-1.6-7.7-1.7-12.4c-0.1-4.7,0.3-9.7,1.3-15.1s2.7-10.8,5.2-16.4c0.2-0.3,0.4-0.7,0.4-1c0.1-0.3,0.1-0.6,0.2-0.8
		c0.2-0.2,0.3-0.4,0.3-0.5c0.4-0.9,0.3-1.6-0.3-2.3l-1-0.5c-3-1.2-5.9-1.4-8.5-0.7c-2.7,0.8-5.2,2.1-7.5,3.9s-4.5,4-6.5,6.4
		s-3.9,4.7-5.7,6.7s-3.4,3.6-5,4.8c-1.5,1.2-2.9,1.4-4.2,0.7c-0.9-0.4-1.2-1.7-0.9-3.8c0.3-2.1,1.1-4.5,2.4-7.1
		c1.3-2.6,3.1-5.2,5.5-7.8c2.3-2.6,5.1-4.7,8.4-6.3c3.3-1.6,6.9-2.5,11.1-2.5c4.1-0.1,8.6,1.2,13.3,3.7c1.6,0.9,3,0.8,4.2-0.2
		c1.1-1,1.9-2.5,2.2-4.6c0.3-2,0.3-4.3-0.2-6.8c-0.4-2.5-1.4-5-2.8-7.2c-1.5-2.3-3.5-4.2-6.1-5.8s-5.8-2.4-9.6-2.5
		C213.3,51.9,209.3,53.1,205.1,55.8 M124.9,89.1c1.4-3,3.1-6.4,5-10.2c2-3.7,4-7.6,6.3-11.5c2.2-3.9,4.5-7.8,6.9-11.6
		s4.7-7.2,7-10.3c2.3-3,4.4-5.6,6.4-7.6c2-2.1,3.8-3.3,5.5-3.7c2.6-0.8,4-0.1,4.1,2.1c0.2,2.2-0.5,5.1-2,8.9
		c-1.5,3.7-3.6,7.9-6.3,12.5c-2.8,4.6-5.8,9.1-9,13.3c-3.3,4.3-6.6,8-10,11.2s-6.5,5.2-9.4,6.1C127.9,89.1,126.4,89.3,124.9,89.1
		 M160.7,18.9c-5,4-9.7,9-14.1,14.8c1.7-3.1,3.4-6,4.9-8.5s2.9-4.6,4.1-6.3l3.6-5.4c0-0.1-0.1-0.2-0.2-0.3c-0.2-0.2-0.4-0.4-0.5-0.7
		c-0.2-0.3-0.5-0.7-1-1c-0.4-0.2-0.9-0.4-1.4-0.6c-0.5-0.2-1.2-0.2-2-0.1h-1.4c-0.5,0-1,0.1-1.5,0.2c-5,0.3-15.9,14.6-18.1,17.6
		c-4.2,5.3-8.4,11.4-12.5,18.3s-8,14.1-11.6,21.6s-6.9,15-9.8,22.6s-5.2,14.8-6.9,21.5c-1.7,6.7-2.6,12.8-2.8,18.3
		c-0.2,5.5,0.5,9.8,2.3,13.1c1.3,2.5,2.9,4.5,4.8,6s3.9,2.7,5.9,3.5c2.1,0.8,4.1,1.3,6.1,1.5s3.8,0.1,5.3-0.2c1.6-0.4,2.7-1.1,3.2-2
		s0.7-1.7,0.7-2.4c-0.4-8.8-0.2-17.3,0.6-25.6c0.8-8.3,2-16.3,3.5-24c1.2,1.1,2.7,1.9,4.6,2.5c1.8,0.6,4.2,0.7,7.2,0.4
		c9.5-2.3,18-6.2,25.2-11.6c7.3-5.5,13.4-11.7,18.3-18.6c4.9-6.9,8.7-14,11.1-21.4c2.5-7.4,3.7-14.1,3.7-20c0-6-1.3-10.8-3.8-14.6
		c-2.6-3.7-6.5-5.4-11.8-5C171,12.8,165.8,14.9,160.7,18.9"/>
	<path class="st0" d="M109.2,24.6c-0.5-1.3-1.4-2.2-2.6-2.7c-1-0.4-2.5-0.3-4.4,0.2s-4.5,1.9-7.8,4.3s-6.7,5.4-10.3,9.1
		c-3.6,3.7-7.2,7.9-10.8,12.5c-3.7,4.6-7.2,9.5-10.8,14.8S55.6,73.4,52.4,79c-0.1,0-5.7,10.6-8.1,15.2c-5.1,5.2-21.6,7.1-22,7
		s-0.6-0.4-0.5-1c0.1-0.5,0.3-1.2,0.7-2c0.4-0.8,0.9-1.7,1.6-2.6C32.7,82.5,39.2,71,43.6,61.2s7.2-18.3,8.6-25.5
		c1.3-7.2,1.5-13.1,0.4-17.7s-2.8-8.3-5.2-11s-5-4.6-8-5.7c-2.9-1.1-5.6-1.5-8-1.3c-3.2,0.2-6.4,0.9-9.5,2S16.2,4.4,14,5.7
		c-2.3,1.4-3.9,2.7-5,3.9c-1,1.2-1.2,1.9-0.5,2.2c5.9,2.2,10.1,5.6,12.6,10c2.6,4.4,4,9.4,4.2,15c0.3,5.5-0.4,11.4-1.9,17.6
		S20,66.5,17.8,72.3s-4.6,11.1-7.1,16S6,97.1,4.3,100c-0.4,0.7-0.9,1.7-1.6,3s-1.3,2.7-1.8,4.2c-0.5,1.4-0.8,2.9-0.9,4.3
		s0.3,2.6,1,3.6c2.4,1.9,5.2,2.9,8.3,3c0.8,0,1.7,0,2.5-0.1c0.1,0,0.1,0,0.2,0c-0.1,0.3,22.8-4.5,22.9-4.6c0.4-0.1,0.9-0.2,1.3-0.2
		c-1.3,3.6-2.3,7.1-3.1,10.3c-1,4.1-1.5,7.8-1.6,11.1s0.3,6.1,1.3,8.4c1,2.5,2.4,4.6,4.1,6.2c1.7,1.6,3.5,2.9,5.4,3.9
		c1.9,0.9,3.8,1.6,5.6,1.8c1.9,0.3,3.6,0.3,5.2,0.2c1.6-0.2,2.7-0.7,3.2-1.6c0.5-0.8,0.7-1.6,0.7-2.2c0.5-10.1,1.8-19.7,3.8-28.8
		c1.3-6,2.9-11.7,4.6-17.3c0.8-0.3,1.5-0.6,2.2-0.9c3-1.3,5.5-2.7,7.7-4.1c2.1-1.4,3.6-2.7,4.3-3.7c0.8-1.1,1.2-2,1.2-2.7
		c0.1-0.9-0.3-1.6-1.1-2.2c-1.5,0.6-3.2,1.2-5.1,1.8c-1.6,0.5-3.5,1.1-5.9,1.7c0,0,0,0-0.1,0c3.7-9.8,6.4-16.4,8.8-21
		c3.6-7.7,7.3-14.6,11-20.6c3.7-6.1,7.2-11.2,10.3-15.5C102.5,32.8,106,28.4,109.2,24.6"/>
	<rect class="st1" width="416.1" height="155.2"/>
</g>
</svg>
