<?xml version="1.0" encoding="utf-8"?>
<!-- Generator: Adobe Illustrator 18.0.0, SVG Export Plug-In . SVG Version: 6.00 Build 0)  -->
<!DOCTYPE svg PUBLIC "-//W3C//DTD SVG 1.1//EN" "http://www.w3.org/Graphics/SVG/1.1/DTD/svg11.dtd">
<svg version="1.1" id="Layer_1" xmlns="http://www.w3.org/2000/svg" xmlns:xlink="http://www.w3.org/1999/xlink" x="0px" y="0px"
	 viewBox="0 0 174.9 27.7" enable-background="new 0 0 174.9 27.7" xml:space="preserve">
<g>
	<rect x="139" y="0.1" fill="#606060" width="3.9" height="27.6"/>
	<path fill="#606060" d="M19,17.5H8l5.6-14L19,17.5z M27.1,27.6L16,0.1h-4.8L0,27.6h4l2.7-7.1h13.4l2.7,7.1H27.1z"/>
	<path fill="#606060" d="M45.4,7.7c0,1.5-0.6,2.6-1.7,3.5c-1.1,0.9-2.7,1.3-4.6,1.3h-3V3.1H39c2.2,0,3.8,0.4,4.9,1.1
		C44.9,4.9,45.4,6.1,45.4,7.7 M47.9,11.5c1.1-1.2,1.6-2.6,1.6-4.3c0-2.3-0.8-4.1-2.4-5.3c-1.6-1.2-4-1.8-7.2-1.8h-7.6v27.6h3.9V15.4
		h2.3c1.4,0,2.4,0.3,3.2,0.7c0.8,0.5,1.4,1.3,1.9,2.5l3.7,9h4.2l-4.3-9.9c-0.6-1.3-1.1-2.2-1.6-2.8s-1.2-0.9-2-1.1
		C45.3,13.5,46.8,12.7,47.9,11.5"/>
	<path fill="#606060" d="M99.2,17.5h-11l5.6-14L99.2,17.5z M107.4,27.6L96.3,0.1h-4.8L80.3,27.6h4l2.7-7.1h13.4l2.7,7.1H107.4z"/>
	<path fill="#606060" d="M129.6,13.7c0,3.4-1,6-2.9,7.9c-2,1.9-4.7,2.8-8.2,2.8h-3.2V3.2h3.2c3.7,0,6.4,0.9,8.3,2.7
		C128.6,7.7,129.6,10.3,129.6,13.7 M133.7,13.9c0-4.6-1.3-8.1-4-10.4c-2.6-2.3-6.6-3.5-11.9-3.5h-6.6v27.6h6.5c5.1,0,9-1.2,11.8-3.6
		C132.3,21.7,133.7,18.3,133.7,13.9"/>
	<path fill="#606060" d="M72.3,0.3C71.2,0.1,70,0,68.7,0c-4.6,0-8.3,1.3-11,3.8c-2.7,2.5-4.1,5.9-4.1,10.2c0,4.2,1.3,7.6,4,10
		c2.7,2.5,6.3,3.7,10.9,3.7c1.2,0,2.4-0.1,3.5-0.3c1.1-0.2,2.1-0.4,3.1-0.7l-0.1-3.4c-1,0.4-2,0.7-3.1,0.9c-1,0.2-2.1,0.3-3.2,0.3
		c-3.4,0-6.1-0.9-8.1-2.8c-2-1.9-3-4.5-3-7.8c0-3.3,1-5.9,3-7.8s4.7-2.9,8.1-2.9c1.1,0,2.1,0.1,3.2,0.3c1,0.2,2.1,0.6,3.2,1l0.2-3.3
		C74.4,0.7,73.4,0.4,72.3,0.3"/>
	<path fill="#606060" d="M147.9,27.6h4l2.7-7.1H168l2.7,7.1h4.3l-11-27.6h-4.8L147.9,27.6z M166.9,17.5h-11l5.6-14L166.9,17.5z"/>
</g>
</svg>
