<?xml version="1.0" encoding="utf-8"?>
<!-- Generator: Adobe Illustrator 18.0.0, SVG Export Plug-In . SVG Version: 6.00 Build 0)  -->
<!DOCTYPE svg PUBLIC "-//W3C//DTD SVG 1.1//EN" "http://www.w3.org/Graphics/SVG/1.1/DTD/svg11.dtd">
<svg version="1.1" id="Layer_1" xmlns="http://www.w3.org/2000/svg" xmlns:xlink="http://www.w3.org/1999/xlink" x="0px" y="0px"
	 viewBox="0 0 158.3 36.2" enable-background="new 0 0 158.3 36.2" xml:space="preserve">
<g>
	<path fill="#606060" d="M36.3,9.9h10v25.4h-10V9.9z"/>
	<path fill="#606060" d="M58.7,13.7L58.7,13.7c0.1-2.1,4.4-4.7,8.7-4.3c7.5,0.7,8.4,4.4,8.4,9.6v16.4H64.6V19.6
		c0-1.4-0.6-3.3-2.6-3.3c-2,0-2.6,2-2.9,3.3v15.7H48V9.9h10.6L58.7,13.7z"/>
	<path fill="#606060" d="M127.6,18.1c-2.1-0.7-3-0.4-4.2,0c-2.6,0.8-3.4,3.2-3.4,6.1v11.1h-11.1V9.9h9.9v2.9h0.2
		c1.9-3.1,4.1-3.8,8.6-3.7L127.6,18.1L127.6,18.1z"/>
	<path fill="#606060" d="M0,0h12.8c11.6,0,21.3,5.2,21.3,17.9c0,10.3-8.1,17.6-18.2,17.6H0V0z M12.2,27.2h1.1c6.5,1,8.7-4.8,8.7-9.3
		c0-4.9-2.1-9-6.2-9.7l-3.6-0.1V27.2z"/>
	<path fill="#606060" d="M142.9,30.1c1.8,0,3.2-0.4,3.4-7.2c0.2-5.4-1.8-7-3.5-7c-1.8,0-3.7,1.1-3.5,7.3
		C139.4,29.8,141.1,30.1,142.9,30.1 M158.3,23.2c0,8.5-7.5,13.1-15.5,13.1c-8,0-15.5-4.6-15.5-13.1c0-9,7.1-13.7,15.5-13.7
		C151.2,9.5,158.3,14.2,158.3,23.2"/>
	<path fill="#606060" d="M95.2,18.5c-0.4-1.7-1.9-4.1-4.9-3.1c-3,1-2.2,3.3-1.7,5L95.2,18.5z M90,25.3c0.5,1.9,1.7,4.2,4.2,3.8
		c4-0.6,3.8-3.2,3.7-4.4l9.8-1.9c0,6.3-6,10.7-11.6,12.1c-7.7,2-15.9-0.2-18.1-8.6C76,18.2,81,11.5,88.8,9.5
		c8.8-2.2,17.1,1.7,19,11.1L90,25.3z"/>
	<path fill="#606060" d="M41.3,0c2.4,0,4.4,2,4.4,4.4s-2,4.4-4.4,4.4c-2.4,0-4.4-2-4.4-4.4S38.8,0,41.3,0"/>
</g>
</svg>
