<?xml version="1.0" encoding="utf-8"?>
<!-- Generator: Adobe Illustrator 18.0.0, SVG Export Plug-In . SVG Version: 6.00 Build 0)  -->
<!DOCTYPE svg PUBLIC "-//W3C//DTD SVG 1.1//EN" "http://www.w3.org/Graphics/SVG/1.1/DTD/svg11.dtd">
<svg version="1.1" id="Layer_1" xmlns="http://www.w3.org/2000/svg" xmlns:xlink="http://www.w3.org/1999/xlink" x="0px" y="0px"
	 viewBox="0 0 131.6 37.6" enable-background="new 0 0 131.6 37.6" xml:space="preserve">
<g>
	<path fill="#606060" d="M19.7,37.4V19.2H27H28c2.5,0,4.1,0.4,5,1.3c0.9,0.9,1.3,2.5,1.3,5c0,2.4-0.4,4-1.2,4.9
		c-0.8,0.8-2.5,1.2-5,1.2h-0.8h-4v5.8L19.7,37.4L19.7,37.4z M23.2,28.6h3.9c1.6,0,2.6-0.2,2.9-0.5c0.4-0.4,0.7-1.2,0.7-2.6
		c0-1.5-0.2-2.5-0.5-2.8c-0.3-0.4-1.3-0.5-2.7-0.5h-4.3L23.2,28.6L23.2,28.6z"/>
	<path fill="#606060" d="M42.6,33.3h3.1v0.5c0,2.5-1.9,3.7-5.6,3.7c-2.5,0-4.2-0.4-5-1.3c-0.8-0.9-1.1-2.7-1.1-5.5
		c0-2.5,0.4-4.2,1.2-5c0.8-0.9,2.4-1.3,4.8-1.3c2.3,0,3.8,0.4,4.6,1.3c0.8,0.8,1.1,2.5,1.1,4.9v0.9H37c0,0.3,0,0.5,0,0.5
		c0,1.3,0.2,2.1,0.6,2.5c0.4,0.4,1.1,0.6,2.3,0.6c1.1,0,1.9-0.1,2.2-0.4C42.4,34.6,42.6,34.1,42.6,33.3z M42.6,29.7v-0.5
		c0-1-0.2-1.7-0.5-2c-0.3-0.3-1.1-0.4-2.3-0.4c-1.1,0-1.9,0.2-2.2,0.5c-0.3,0.4-0.5,1.1-0.5,2.4L42.6,29.7L42.6,29.7z"/>
	<path fill="#606060" d="M46.4,24.6h3.1l-0.2,1.8h0.1c0.7-1.3,1.9-2,3.4-2c2.2,0,3.3,1.4,3.3,4.2v0.9h-2.9c0.1-0.3,0.1-0.5,0.1-0.7
		c0-1.4-0.5-2-1.6-2c-1.5,0-2.2,1-2.2,3v7.5h-3.1L46.4,24.6L46.4,24.6z"/>
	<path fill="#606060" d="M66.5,28.1h-3c0-0.1-0.1-0.2-0.1-0.2c-0.1-0.6-0.2-1-0.5-1.1c-0.3-0.2-1-0.2-2.1-0.2
		c-1.6,0-2.4,0.5-2.4,1.5c0,0.7,0.2,1.1,0.4,1.3c0.3,0.1,1.2,0.2,2.8,0.3c2.2,0.1,3.6,0.4,4.3,0.9c0.7,0.5,1,1.4,1,2.9
		c0,1.5-0.4,2.6-1.3,3.2c-0.9,0.6-2.5,0.9-4.7,0.9c-2.2,0-3.7-0.3-4.5-0.8c-0.8-0.5-1.2-1.5-1.2-3.1v-0.3h3.2
		c-0.1,0.2-0.1,0.3-0.1,0.4c-0.1,1.1,0.8,1.7,2.6,1.7c1.9,0,2.9-0.5,2.9-1.7c0-1.1-0.6-1.6-1.8-1.6c-2.7,0-4.5-0.3-5.4-0.8
		c-0.9-0.5-1.3-1.6-1.3-3.2c0-1.5,0.4-2.5,1.2-2.9c0.8-0.5,2.3-0.8,4.5-0.8c2.1,0,3.5,0.3,4.3,0.8C66.1,25.7,66.5,26.7,66.5,28.1z"
		/>
	<path fill="#606060" d="M73,24.5c2.5,0,4,0.4,4.8,1.2c0.8,0.8,1.1,2.5,1.1,5c0,2.8-0.4,4.6-1.1,5.6c-0.8,0.9-2.3,1.3-4.7,1.3
		c-2.6,0-4.3-0.4-5-1.2S67,33.7,67,31c0-2.7,0.4-4.4,1.1-5.2C68.9,24.9,70.5,24.5,73,24.5z M73,26.9c-1.3,0-2.1,0.2-2.4,0.7
		c-0.3,0.4-0.5,1.5-0.5,3.2c0,1.9,0.2,3.1,0.5,3.6c0.3,0.5,1.1,0.7,2.5,0.7c1.3,0,2.1-0.3,2.4-0.8c0.3-0.5,0.5-1.7,0.5-3.7
		c0-1.6-0.2-2.7-0.5-3.1C75,27.1,74.2,26.9,73,26.9z"/>
	<path fill="#606060" d="M79.6,24.6h3l-0.1,2.1h0.1c0.6-1.5,1.9-2.3,4-2.3c3,0,4.5,1.4,4.5,4.2v8.7H88v-7.6v-0.5L88,28.3
		c-0.2-0.9-0.9-1.4-2.2-1.4c-2.1,0-3.1,1-3.1,2.9v7.5h-3.1L79.6,24.6L79.6,24.6z"/>
	<path fill="#606060" d="M95.3,28.3h-3.1c0-1.5,0.3-2.6,1-3.1c0.7-0.5,2.1-0.8,4.2-0.8c2.3,0,3.8,0.3,4.6,0.9
		c0.8,0.7,1.2,1.9,1.2,3.6v8.3h-3.1l0.2-1.7h-0.1c-0.6,1.3-1.9,1.9-4,1.9c-3.1,0-4.6-1.3-4.6-3.9s1.6-4,4.7-4c2.1,0,3.4,0.5,3.8,1.5
		h0.1V29c0-1-0.2-1.6-0.5-2c-0.3-0.3-1-0.5-2.1-0.5C96.1,26.5,95.3,27.1,95.3,28.3z M97.4,31.7c-1.7,0-2.6,0.6-2.6,1.8
		c0,0.8,0.2,1.4,0.5,1.6c0.3,0.3,1.1,0.4,2.2,0.4c1.9,0,2.8-0.6,2.8-1.9C100.3,32.3,99.3,31.7,97.4,31.7z"/>
	<path fill="#606060" d="M107.5,19.2v18.1h-3.1V19.2H107.5z"/>
	<path fill="#606060" d="M116.8,33.3h3.1v0.5c0,2.5-1.9,3.7-5.6,3.7c-2.5,0-4.2-0.4-5-1.3c-0.8-0.9-1.1-2.7-1.1-5.5
		c0-2.5,0.4-4.2,1.2-5c0.8-0.9,2.4-1.3,4.8-1.3c2.3,0,3.8,0.4,4.6,1.3c0.8,0.8,1.1,2.5,1.1,4.9v0.9h-8.6c0,0.3,0,0.5,0,0.5
		c0,1.3,0.2,2.1,0.6,2.5c0.4,0.4,1.1,0.6,2.3,0.6c1.1,0,1.9-0.1,2.2-0.4C116.6,34.6,116.8,34.1,116.8,33.3z M116.8,29.7v-0.5
		c0-1-0.2-1.7-0.5-2c-0.3-0.3-1.1-0.4-2.3-0.4c-1.1,0-1.9,0.2-2.2,0.5c-0.3,0.4-0.5,1.1-0.5,2.4L116.8,29.7L116.8,29.7z"/>
	<path fill="#606060" d="M131.1,28.1h-3c0-0.1-0.1-0.2-0.1-0.2c-0.1-0.6-0.2-1-0.5-1.1c-0.3-0.2-1-0.2-2.1-0.2
		c-1.6,0-2.4,0.5-2.4,1.5c0,0.7,0.2,1.1,0.4,1.3c0.3,0.1,1.2,0.2,2.8,0.3c2.2,0.1,3.6,0.4,4.3,0.9c0.7,0.5,1,1.4,1,2.9
		c0,1.5-0.4,2.6-1.3,3.2s-2.5,0.9-4.7,0.9c-2.2,0-3.7-0.3-4.5-0.8c-0.8-0.5-1.2-1.5-1.2-3.1v-0.3h3.2c-0.1,0.2-0.1,0.3-0.1,0.4
		c-0.1,1.1,0.8,1.7,2.6,1.7c1.9,0,2.9-0.5,2.9-1.7c0-1.1-0.6-1.6-1.8-1.6c-2.7,0-4.5-0.3-5.4-0.8c-0.9-0.5-1.3-1.6-1.3-3.2
		c0-1.5,0.4-2.5,1.2-2.9c0.8-0.5,2.3-0.8,4.5-0.8c2.1,0,3.5,0.3,4.3,0.8C130.7,25.7,131.1,26.7,131.1,28.1z"/>
	<g>
		<path fill="#606060" d="M12.1,2.9v4.9h8.1v2.9h-8.1V18H8.6V0h11.9v2.9H12.1z"/>
		<path fill="#606060" d="M24.2,0v2.5h-3V0H24.2z M24.2,5.4V18h-3V5.4H24.2z"/>
		<path fill="#606060" d="M25.3,5.4h3l-0.1,2.1h0.1c0.6-1.5,1.9-2.3,4-2.3c3,0,4.5,1.4,4.5,4.2V18h-3v-7.6V9.9l-0.1-0.9
			c-0.2-0.9-0.9-1.4-2.2-1.4c-2,0-3.1,1-3.1,2.9V18h-3L25.3,5.4L25.3,5.4z"/>
		<path fill="#606060" d="M40.9,9.1h-3.1c0-1.5,0.3-2.5,1-3.1c0.7-0.5,2.1-0.8,4.2-0.8c2.3,0,3.8,0.3,4.6,0.9
			c0.8,0.6,1.2,1.8,1.2,3.5V18h-3l0.2-1.7h-0.1c-0.6,1.3-1.9,1.9-4,1.9c-3.1,0-4.6-1.3-4.6-3.9c0-2.6,1.6-3.9,4.7-3.9
			c2.1,0,3.3,0.5,3.8,1.4h0.1v-2c0-1-0.2-1.6-0.5-2c-0.3-0.3-1-0.5-2.1-0.5C41.7,7.3,40.9,7.9,40.9,9.1z M42.9,12.3
			c-1.7,0-2.6,0.6-2.6,1.7c0,0.8,0.2,1.4,0.5,1.6c0.3,0.3,1.1,0.4,2.2,0.4c1.9,0,2.8-0.6,2.8-1.9C45.9,13,44.9,12.3,42.9,12.3z"/>
		<path fill="#606060" d="M50,5.4h3l-0.1,2.1h0.1c0.6-1.5,1.9-2.3,4-2.3c3,0,4.5,1.4,4.5,4.2V18h-3v-7.6V9.9l-0.1-0.9
			c-0.2-0.9-0.9-1.4-2.2-1.4c-2,0-3.1,1-3.1,2.9V18h-3L50,5.4L50,5.4z"/>
		<path fill="#606060" d="M62,5.4h9.8V8l-6.8,7.7h6.8V18H61.5v-2.7l6.7-7.6H62L62,5.4L62,5.4z"/>
		<path fill="#606060" d="M75.1,9.1H72c0-1.5,0.3-2.5,1-3.1c0.7-0.5,2.1-0.8,4.2-0.8c2.3,0,3.8,0.3,4.6,0.9c0.8,0.6,1.2,1.8,1.2,3.5
			V18h-3l0.2-1.7h-0.1c-0.6,1.3-1.9,1.9-4,1.9c-3.1,0-4.6-1.3-4.6-3.9c0-2.6,1.6-3.9,4.7-3.9c2.1,0,3.3,0.5,3.8,1.4h0.1v-2
			c0-1-0.2-1.6-0.5-2c-0.3-0.3-1-0.5-2.1-0.5C75.9,7.3,75.1,7.9,75.1,9.1z M77.2,12.3c-1.7,0-2.6,0.6-2.6,1.7c0,0.8,0.2,1.4,0.5,1.6
			c0.3,0.3,1.1,0.4,2.2,0.4c1.9,0,2.8-0.6,2.8-1.9C80.1,13,79.1,12.3,77.2,12.3z"/>
		<path fill="#606060" d="M94.8,8.8h-2.9c0-0.1-0.1-0.2-0.1-0.2c-0.1-0.6-0.2-1-0.5-1.1c-0.3-0.2-1-0.2-2.1-0.2
			c-1.6,0-2.3,0.5-2.3,1.5c0,0.7,0.2,1.1,0.4,1.3c0.3,0.1,1.2,0.2,2.8,0.3c2.1,0.1,3.5,0.4,4.2,0.9c0.7,0.5,1,1.4,1,2.8
			c0,1.5-0.4,2.6-1.3,3.2c-0.9,0.6-2.4,0.9-4.6,0.9c-2.1,0-3.6-0.3-4.4-0.8s-1.2-1.5-1.2-3V14h3.2c-0.1,0.2-0.1,0.3-0.1,0.4
			c-0.1,1.1,0.8,1.7,2.6,1.7c1.9,0,2.8-0.5,2.8-1.6c0-1-0.6-1.6-1.8-1.6c-2.7,0-4.5-0.3-5.4-0.8c-0.9-0.5-1.3-1.6-1.3-3.2
			c0-1.4,0.4-2.4,1.2-2.9c0.8-0.5,2.3-0.8,4.5-0.8c2.1,0,3.5,0.3,4.3,0.8S94.8,7.4,94.8,8.8z"/>
	</g>
	<g>
		<path fill="#606060" d="M0,20.6h4.5l5.1,8.3l-5.1,8.2H0l5.1-8.2L0,20.6z M8.3,20.6h4.5l5.1,8.3l-5.1,8.2H8.3l5.1-8.2L8.3,20.6z"/>
	</g>
</g>
</svg>
