<?xml version="1.0" encoding="utf-8"?>
<!-- Generator: Adobe Illustrator 21.0.2, SVG Export Plug-In . SVG Version: 6.00 Build 0)  -->
<svg version="1.1" id="Layer_1" xmlns="http://www.w3.org/2000/svg" xmlns:xlink="http://www.w3.org/1999/xlink" x="0px" y="0px"
	 viewBox="0 0 167.1 35.9" style="enable-background:new 0 0 167.1 35.9;" xml:space="preserve">
<style type="text/css">
	.st0{fill:#606060;}
</style>
<g>
	<g>
		<path class="st0" d="M0.8,1.5h16.8L19,7.6H7.1v7.5h8.8v6.1H7.1v13.2l-6.3,0.8V1.5z"/>
		<path class="st0" d="M49.4,0.7v23.8c0,6-4.5,10.7-11.8,10.7c-5.6,0-11.4-3.2-11.4-11.6V1.5l6.3-0.8v22c0,2.9,0.5,6.4,5.4,6.4
			c4.4,0,5.2-3,5.2-7V1.5L49.4,0.7z"/>
		<path class="st0" d="M80.5,34c-1.4,0.8-3.9,1.2-5.3,1.2C65,35.2,58.3,27.6,58.3,18c0-9.5,6.9-17.3,16.6-17.3c1.6,0,4,0.4,5.3,1.2
			l1,7.6c-1.7-1.4-3.9-2.4-6.6-2.4c-5.8,0-9.8,5.2-9.8,10.8c0,6.2,4.6,10.8,10.1,10.8c2.6,0,4.7-1.3,6.4-2.7L80.5,34z"/>
		<path class="st0" d="M93,25.6c1.6,1.8,2.8,3.6,6.3,3.6c2.2,0,4.2-1.8,4.2-3.8c0-6.5-14.3-2.8-14.3-14.5c0-6.3,4.7-10.1,11.2-10.1
			c3.2,0,7.2,1.8,9.2,4.5l-3.9,4.6c-1.5-1.6-3.9-3-5.6-3c-2.2,0-4.2,1-4.2,4c0,5.6,14.3,1.6,14.3,14.6c0,6-5,9.9-11.1,9.9
			c-4.1,0-7.5-1.7-10.3-5.1L93,25.6z"/>
		<path class="st0" d="M119.4,34.8V1.5l6.3-0.8v33.7L119.4,34.8z"/>
		<path class="st0" d="M132.7,34.2l16.5-33.5h0.1l17.1,33.5l-6.7,1l-3.9-8.4h-12.5l-3.8,8.4L132.7,34.2z M145.6,21.3h7.3l-3.8-8.9
			L145.6,21.3z"/>
	</g>
</g>
</svg>
