<?xml version="1.0" encoding="utf-8"?>
<!-- Generator: Adobe Illustrator 21.0.2, SVG Export Plug-In . SVG Version: 6.00 Build 0)  -->
<svg version="1.1" id="Layer_1" xmlns="http://www.w3.org/2000/svg" xmlns:xlink="http://www.w3.org/1999/xlink" x="0px" y="0px"
	 viewBox="0 0 176.7 43.9" style="enable-background:new 0 0 176.7 43.9;" xml:space="preserve">
<style type="text/css">
	.st0{fill:#606060;}
</style>
<g>
	<g>
		<g>
			<g>
				<g>
					<g>
						<g>
							<g>
								<path class="st0" d="M8.3,0v31.7c0,2.4-0.5,3-2.7,3H1.1v6.7h11.1c3.1,0,4.4-0.3,5.9-1.3c1.8-1.2,2.4-3.3,2.4-7.7V0H8.3"/>
								<path class="st0" d="M52.3,33.6c0,5.8-2.1,7.7-8.7,7.7H31.8c-6.5,0-8.3-1.7-8.3-8.3V14.4c0-5.5,2.2-7.8,7.6-7.8h13.1
									c5.9,0,8.1,2.2,8.1,7.9v10.1h-17v7.3c0,1.8,0.4,3.3,2.6,3.3c2.5,0,2.6-1.4,2.6-3.3v-4.1h11.8V33.6 M40.5,19.1v-3.3
									c0-1.5-0.3-2.9-2.5-2.9c-2.4,0-2.7,1.4-2.7,2.9v3.3H40.5z"/>
								<path class="st0" d="M151.1,33.6c0,5.8-2.1,7.7-8.7,7.7h-11.8c-6.5,0-8.3-1.7-8.3-8.3V14.4c0-5.6,2.2-7.8,7.6-7.8H143
									c5.9,0,8.1,2.2,8.1,7.9v10.1h-17v7.3c0,1.8,0.4,3.3,2.6,3.3c2.5,0,2.6-1.4,2.6-3.3v-4.1h11.8L151.1,33.6 M139.3,19.1v-3.3
									c0-1.5-0.3-2.9-2.5-2.9c-2.4,0-2.7,1.4-2.7,2.9v3.3H139.3z"/>
								<path class="st0" d="M65.8,41.4c-6.7,0-8.6-1.9-8.6-8.5V13.4h-3.4V6.7h3.4V0h12.7v6.7h5.2v6.7h-5.2v18.2
									c0,2.3,0.5,2.9,2.3,2.9h3l0.1,6.8L65.8,41.4"/>
								<rect x="74.7" y="19.8" class="st0" width="12.2" height="8"/>
								<path class="st0" d="M164.9,41.4c-6.7,0-8.6-1.9-8.6-8.5V13.4h-3.4V6.7h3.4V0H169v6.7h5.2v6.7H169v18.2
									c0,2.3,0.5,2.9,2.3,2.9h3l0.1,6.8L164.9,41.4"/>
								<path class="st0" d="M102.3,29.4v3c0,1.3,0.3,2.6,2.5,2.6c2.4,0,2.2-1.4,2.2-3.1c0-2.8-0.9-3.2-4.6-4.4l-5-1.7
									c-6-2-7-3.4-7-9.8c0-7.3,1.7-9.4,7.7-9.4h11.8c7.2,0,9.2,1.7,9.2,7.9v2.4h-11.8v-1.2c-0.1-1.5-0.2-2.9-2.5-2.9
									s-2.6,1.5-2.6,2.8c0,1.7,1.5,2,4.7,3.2l5,1.7c6.2,2.2,7.2,3.5,7.2,9.6v3.7c0,5.6-2.2,7.7-8.3,7.7h-12c-6.4,0-8.5-2-8.5-8.1
									v-4H102.3"/>
							</g>
						</g>
					</g>
					<g>
						<g>
							<g>
								<g>
									<g>
										<g>
											<g>
												<path class="st0" d="M8.3,0.7v31.7c0,2.4-0.5,3-2.7,3H1.1v6.7h11.1c3.1,0,4.4-0.3,5.9-1.3c1.8-1.2,2.4-3.3,2.4-7.7V0.7
													H8.3"/>
												<path class="st0" d="M52.3,34.3c0,5.8-2.1,7.7-8.7,7.7H31.8c-6.5,0-8.3-1.7-8.3-8.3V15.1c0-5.5,2.2-7.8,7.6-7.8h13.1
													c5.9,0,8.1,2.2,8.1,7.9v10.1h-17v7.3c0,1.8,0.4,3.3,2.6,3.3c2.5,0,2.6-1.4,2.6-3.3v-4.2h11.8V34.3 M40.5,19.7v-3.3
													c0-1.5-0.3-2.9-2.5-2.9c-2.4,0-2.7,1.4-2.7,2.9v3.3H40.5z"/>
												<path class="st0" d="M151.1,34.3c0,5.8-2.1,7.7-8.7,7.7h-11.8c-6.5,0-8.3-1.7-8.3-8.3V15.1c0-5.6,2.2-7.8,7.6-7.8H143
													c5.9,0,8.1,2.2,8.1,7.9v10.1h-17v7.3c0,1.8,0.4,3.3,2.6,3.3c2.5,0,2.6-1.4,2.6-3.3v-4.2h11.8L151.1,34.3 M139.3,19.7
													v-3.3c0-1.5-0.3-2.9-2.5-2.9c-2.4,0-2.7,1.4-2.7,2.9v3.3H139.3z"/>
												<path class="st0" d="M65.8,42c-6.7,0-8.6-1.9-8.6-8.5V14.1h-3.4V7.4h3.4V0.6h12.7v6.8h5.2v6.7h-5.2v18.2
													c0,2.3,0.5,2.9,2.3,2.9h3l0.1,6.8L65.8,42"/>
												<rect x="74.7" y="20.4" class="st0" width="12.2" height="8"/>
												<path class="st0" d="M164.9,42c-6.7,0-8.6-1.9-8.6-8.5V14.1h-3.4V7.4h3.4V0.6H169v6.8h5.2v6.7H169v18.2
													c0,2.3,0.5,2.9,2.3,2.9h3l0.1,6.8L164.9,42"/>
												<path class="st0" d="M102.3,30.1v3c0,1.3,0.3,2.6,2.5,2.6c2.4,0,2.2-1.4,2.2-3.1c0-2.8-0.9-3.2-4.6-4.4l-5-1.7
													c-6-2-7-3.4-7-9.8c0-7.3,1.7-9.4,7.7-9.4h11.8c7.2,0,9.2,1.7,9.2,7.9v2.4h-11.8v-1.2c-0.1-1.5-0.2-2.9-2.5-2.9
													s-2.6,1.5-2.6,2.8c0,1.7,1.5,2,4.7,3.2l5,1.7c6.2,2.2,7.2,3.5,7.2,9.6v3.7c0,5.6-2.2,7.7-8.3,7.7h-12
													c-6.4,0-8.5-2-8.5-8.1v-3.8h12"/>
											</g>
										</g>
									</g>
								</g>
							</g>
						</g>
					</g>
				</g>
			</g>
		</g>
	</g>
</g>
</svg>
