<?xml version="1.0" encoding="utf-8"?>
<!-- Generator: Adobe Illustrator 21.0.2, SVG Export Plug-In . SVG Version: 6.00 Build 0)  -->
<svg version="1.1" id="Capa_1" xmlns="http://www.w3.org/2000/svg" xmlns:xlink="http://www.w3.org/1999/xlink" x="0px" y="0px"
	 viewBox="0 0 264 60" style="enable-background:new 0 0 264 60;" xml:space="preserve">
<style type="text/css">
	.st0{fill:#FFFFFF;}
</style>
<g>
	<path d="M31.5,5.8L31.5,5.8l-0.1-0.1c-0.6-0.6-1.1-1.2-1.7-1.7l0.1,0.1L31.5,5.8z"/>
	<path d="M9.4,10.5c0,0.1,0,0.3,0,0.5l0,0l0,0c0,0.1,0,0.3,0,0.4v0.1c0,0.1,0,0.3,0.1,0.4c0,0,0,0,0,0.1s0.1,0.3,0.1,0.4
		c0,0,0,0,0,0.1s0.1,0.3,0.2,0.5l0,0c0,0,0,0,0,0.1s0.1,0.2,0.1,0.2s0,0.1,0.1,0.1c0,0.1,0.1,0.2,0.1,0.3c0,0,0,0.1,0.1,0.1
		c0.1,0.1,0.1,0.2,0.2,0.4l0,0c0.1,0.1,0.2,0.2,0.2,0.4l0,0c0,0,0,0,0.1,0.1s0.2,0.2,0.3,0.4l0.1,0.1c0.1,0.1,0.3,0.3,0.4,0.4
		c0.6,0.6,1.1,1.2,1.7,1.7c-0.1-0.1-0.3-0.3-0.4-0.4l-0.1-0.1c-0.1-0.1-0.2-0.2-0.3-0.3l-0.1-0.1c-0.1-0.1-0.2-0.2-0.2-0.3l0,0
		C12,16,12,15.9,11.9,15.7c0,0,0-0.1-0.1-0.1c0-0.1-0.1-0.2-0.1-0.2s0-0.1-0.1-0.1c0-0.1-0.1-0.1-0.1-0.2V15
		c-0.1-0.2-0.1-0.3-0.2-0.4c0,0,0,0,0-0.1s-0.1-0.3-0.1-0.4c0,0,0,0,0-0.1s-0.1-0.3-0.1-0.4v-0.1c0-0.1,0-0.3,0-0.4l0,0
		c0-0.2,0-0.3,0-0.5s0-0.3,0-0.5c0,0,0,0,0-0.1s0-0.2,0-0.3l0,0c0-0.1,0-0.2,0.1-0.3v-0.1c0-0.1,0-0.2,0.1-0.3c0,0,0,0,0-0.1
		s0.1-0.2,0.1-0.3v-0.1c0-0.1,0.1-0.2,0.1-0.3c0,0,0,0,0-0.1c0.1-0.1,0.1-0.2,0.2-0.3c0,0,0,0,0-0.1C12,9.2,12.1,9.1,12.1,9l0,0
		c0.1-0.1,0.2-0.2,0.3-0.4c0,0,0-0.1,0.1-0.1l0.1-0.1l0.1-0.1l0.1-0.1l0.1-0.1C13,8,13.1,7.9,13.1,7.9l0.1-0.1
		c0.1-0.1,0.1-0.1,0.2-0.2c0,0,0,0,0.1,0c0.1-0.1,0.2-0.1,0.3-0.2c0,0,0.1,0,0.1-0.1c0.1,0,0.1-0.1,0.2-0.1l0.1-0.1
		C14.3,7,14.4,7,14.4,7c0.1,0,0.1-0.1,0.2-0.1c0.1,0,0.1-0.1,0.2-0.1c0.1,0,0.1,0,0.2-0.1c0.1,0,0.1-0.1,0.2-0.1
		c0.1,0,0.1,0,0.2-0.1c0.1,0,0.2-0.1,0.2-0.1c0.1,0,0.1,0,0.2-0.1c0.1,0,0.2,0,0.2-0.1c0.1,0,0.1,0,0.2-0.1c0.1,0,0.2,0,0.3-0.1
		c0.1,0,0.1,0,0.2,0s0.2,0,0.3,0c0.1,0,0.1,0,0.2,0s0.2,0,0.3,0c0.1,0,0.1,0,0.2,0s0.2,0,0.4,0c0.1,0,0.1,0,0.2,0c0.2,0,0.4,0,0.6,0
		c4.9,0,8.7,2.6,11.3,5.2c-0.6-0.6-1.1-1.2-1.7-1.7c-0.6-0.6-1.4-1.3-2.1-1.9l0,0c0,0-0.1,0-0.1-0.1c-2.4-1.8-5.4-3.2-9-3.2
		c-0.2,0-0.4,0-0.6,0c-0.1,0-0.1,0-0.2,0s-0.2,0-0.4,0c-0.1,0-0.1,0-0.2,0c-0.1,0-0.2,0-0.3,0s-0.1,0-0.2,0c-0.1,0-0.2,0-0.3,0
		s-0.1,0-0.2,0c-0.1,0-0.2,0-0.3,0.1c-0.1,0-0.1,0-0.2,0.1c-0.1,0-0.2,0-0.2,0.1c-0.1,0-0.1,0-0.2,0.1c-0.1,0-0.2,0.1-0.2,0.1
		c-0.1,0-0.1,0-0.2,0.1c-0.1,0-0.2,0.1-0.2,0.1c-0.1,0-0.1,0-0.2,0.1c-0.1,0-0.1,0.1-0.2,0.1c0,0-0.1,0-0.1,0.1
		c-0.1,0-0.1,0.1-0.2,0.1c0,0-0.1,0-0.1,0.1c-0.1,0-0.2,0.1-0.2,0.2c0,0-0.1,0-0.1,0.1C12.2,5.9,12.1,5.9,12,6l0,0
		c-0.1,0.1-0.2,0.1-0.3,0.2c0,0,0,0-0.1,0.1s-0.1,0.1-0.2,0.2l-0.1,0.1C11.1,6.4,11,6.5,11,6.5l-0.1,0.1c0,0.1-0.1,0.1-0.1,0.2l0,0
		l0,0c-0.1,0.1-0.2,0.2-0.3,0.4l0,0c-0.1,0.1-0.2,0.2-0.2,0.4l0,0l0,0C10.1,7.8,10,7.9,10,8c0,0,0,0,0,0.1S9.9,8.3,9.9,8.4l0,0l0,0
		c0,0.1-0.1,0.2-0.1,0.3c0,0,0,0,0,0.1S9.7,9,9.7,9.1l0,0l0,0c0,0.1,0,0.2-0.1,0.3l0,0c0,0.1,0,0.2,0,0.3l0,0l0,0
		C9.4,10.1,9.4,10.3,9.4,10.5z"/>
	<polygon points="37.7,16.6 37.8,2.4 36.1,0.6 36,14.9 32.5,14.9 34.2,16.6 	"/>
	<path d="M4.3,40.6c0,0.1,0,0.1,0.1,0.2l0,0c0,0.1,0.1,0.2,0.1,0.3v0.1c0.1,0.1,0.1,0.3,0.2,0.4c0,0,0,0.1,0.1,0.1
		C4.9,41.8,4.9,41.9,5,42c0,0.1,0,0.2,0,0.3c0.1,0.1,0.1,0.2,0.2,0.3c0,0.1,0.1,0.1,0.1,0.2c0.1,0.1,0.1,0.2,0.2,0.3
		c0,0.1,0.1,0.1,0.1,0.2c0.1,0.1,0.1,0.2,0.2,0.3c0,0.1,0.1,0.1,0.1,0.2C6,43.8,6,43.9,6.1,44c0,0.1,0.1,0.1,0.1,0.2
		c0.1,0.1,0.1,0.2,0.2,0.3l0.1,0.1c0,0,0,0,0,0.1c0.3,0.4,0.6,0.8,0.9,1.2c0.2,0,0.2,0.1,0.3,0.1c0.1,0.1,0.2,0.3,0.4,0.4
		c0.1,0.1,0.1,0.1,0.2,0.2c0.2,0.2,0.4,0.4,0.6,0.6l1.7,1.7l0,0l0,0l0,0c-0.2-0.2-0.3-0.4-0.5-0.5c-0.1-0.1-0.1-0.1-0.2-0.2
		c-0.1-0.1-0.3-0.3-0.4-0.4c-0.1-0.1-0.1-0.1-0.2-0.2c-0.3-0.4-0.6-0.8-0.9-1.2c-0.1-0.1-0.1-0.1-0.1-0.2C8.1,46.1,8,46,8,45.9
		c-0.1-0.1-0.1-0.1-0.1-0.2c-0.1-0.1-0.1-0.2-0.2-0.3c0-0.1-0.1-0.1-0.1-0.2C7.4,45.1,7.4,45,7.3,45c0-0.1-0.1-0.1-0.1-0.2
		c-0.1-0.1-0.1-0.2-0.2-0.3c0-0.1-0.1-0.1-0.1-0.2c-0.1-0.1-0.1-0.2-0.2-0.3c0-0.1-0.1-0.1-0.1-0.2c-0.1-0.1-0.1-0.2-0.2-0.3
		c0,0,0-0.1-0.1-0.1c-0.1-0.1-0.1-0.3-0.2-0.4v-0.1c0-0.1-0.1-0.2-0.1-0.3s-0.1-0.1-0.1-0.2v-0.1c0-0.1-0.1-0.2-0.1-0.3l-1.7-1.7
		C4.2,40.3,4.2,40.4,4.3,40.6L4.3,40.6z"/>
	<path d="M6.5,29.4c3.1,3.2,7.6,5.4,12.9,7.1c5.8,1.8,9.1,3.7,10.8,5.5c-0.6-0.6-1.1-1.2-1.7-1.7c-1.8-1.8-5.1-3.7-10.8-5.5
		c-0.3-0.1-0.7-0.2-1-0.3c-3.9-1.3-7.3-2.9-10-5.1c-0.7-0.5-1.3-1.1-1.9-1.7l0,0l0,0L6.5,29.4z"/>
	<path d="M42.1,41.9c0-0.1,0-0.2,0-0.3c0-0.2,0-0.5,0-0.7c0-0.1,0-0.1,0-0.2c0-0.1,0-0.2,0-0.3s0-0.2,0-0.2c0-0.2-0.1-0.5-0.1-0.7
		v-0.1c0-0.3-0.1-0.5-0.1-0.8c0-0.1,0-0.1,0-0.2c0-0.2-0.1-0.4-0.1-0.6c0-0.1,0-0.2-0.1-0.2c-0.1-0.2-0.1-0.5-0.2-0.7v-0.1
		c-0.1-0.3-0.2-0.5-0.3-0.8c0-0.1-0.1-0.1-0.1-0.2c0-0.1-0.1-0.2-0.1-0.3s-0.1-0.2-0.1-0.3c0,0,0-0.1-0.1-0.1
		c-0.1-0.3-0.2-0.5-0.3-0.8c0-0.1-0.1-0.1-0.1-0.2c-0.1-0.3-0.3-0.5-0.4-0.8l0,0c-0.1-0.2-0.3-0.5-0.4-0.7c0-0.1-0.1-0.1-0.1-0.2
		c-0.2-0.2-0.3-0.5-0.5-0.7c0-0.1-0.1-0.1-0.1-0.2c-0.1-0.1-0.1-0.2-0.2-0.3c-0.1-0.1-0.2-0.2-0.3-0.4l-0.1-0.1
		c-0.2-0.2-0.4-0.5-0.6-0.7c0-0.1-0.1-0.1-0.2-0.2c-0.2-0.2-0.4-0.5-0.7-0.7c-0.6-0.6-1.2-1.2-1.7-1.7l0,0l0,0l0,0
		c0.2,0.2,0.4,0.5,0.6,0.7c0,0.1,0.1,0.1,0.1,0.2c0.2,0.2,0.4,0.5,0.6,0.7c0,0,0,0.1,0.1,0.1c0.2,0.2,0.3,0.4,0.5,0.7l0.1,0.1
		c0.2,0.2,0.3,0.5,0.5,0.7l0.1,0.1c0.2,0.2,0.3,0.5,0.4,0.7l0,0c0.1,0.3,0.3,0.5,0.4,0.8c0,0.1,0.1,0.1,0.1,0.2
		c0.1,0.3,0.2,0.5,0.3,0.8c0,0,0,0.1,0.1,0.1c0.1,0.2,0.2,0.4,0.2,0.6c0,0.1,0.1,0.1,0.1,0.2c0.1,0.3,0.2,0.5,0.3,0.8V35
		c0.1,0.2,0.1,0.5,0.2,0.7c0,0.1,0,0.2,0.1,0.2c0,0.2,0.1,0.4,0.1,0.6c0,0.1,0,0.1,0,0.2c0.1,0.3,0.1,0.5,0.1,0.8v0.1
		c0,0.2,0.1,0.5,0.1,0.7c0,0.1,0,0.2,0,0.2c0,0.1,0,0.3,0,0.4c0,0.2,0,0.5,0,0.7c0,0.1,0,0.2,0,0.3c0,0.3,0,0.7,0,1s0,0.7,0,1
		c0,0.1,0,0.2,0,0.2c0,0.3-0.1,0.7-0.1,1v0.1c0,0.3-0.1,0.6-0.2,1c0,0.1,0,0.1,0,0.2c-0.1,0.3-0.2,0.6-0.3,1c0,0.1,0,0.1-0.1,0.2
		c-0.1,0.3-0.2,0.5-0.3,0.8c0,0.1-0.1,0.2-0.1,0.2c-0.1,0.3-0.3,0.6-0.4,1c0,0.1-0.1,0.1-0.1,0.2c-0.1,0.3-0.3,0.6-0.4,0.8
		c0,0.1-0.1,0.2-0.1,0.2c0,0.1-0.1,0.2-0.2,0.3c-0.1,0.1-0.2,0.3-0.2,0.4c-0.1,0.1-0.1,0.2-0.2,0.2c-0.1,0.1-0.2,0.3-0.3,0.4
		c-0.1,0.1-0.1,0.2-0.2,0.2c-0.1,0.1-0.2,0.3-0.3,0.4c0,0.1-0.1,0.1-0.1,0.2c-0.1,0.1-0.1,0.1-0.2,0.2c-0.1,0.2-0.3,0.3-0.4,0.5
		c-0.1,0.1-0.2,0.2-0.2,0.2c-0.1,0.1-0.3,0.3-0.4,0.4c-0.1,0.1-0.2,0.2-0.3,0.2c-0.1,0.1-0.3,0.2-0.4,0.4c-0.1,0.1-0.2,0.2-0.3,0.2
		c-0.1,0.1-0.3,0.2-0.4,0.3c-0.1,0.1-0.2,0.2-0.3,0.2c-0.2,0.1-0.3,0.2-0.5,0.3c-0.1,0.1-0.2,0.1-0.3,0.2c-0.2,0.1-0.3,0.2-0.5,0.3
		c-0.1,0.1-0.2,0.1-0.3,0.2c-0.2,0.1-0.4,0.2-0.6,0.4c-0.1,0-0.2,0.1-0.2,0.1c-0.3,0.2-0.6,0.3-0.9,0.4c-0.1,0-0.1,0.1-0.2,0.1
		c-0.3,0.1-0.5,0.2-0.8,0.3c-0.1,0-0.2,0.1-0.4,0.1c-0.2,0.1-0.4,0.2-0.7,0.2c-0.1,0-0.3,0.1-0.4,0.1c-0.2,0.1-0.4,0.1-0.6,0.2
		c-0.2,0-0.3,0.1-0.5,0.1c-0.2,0.1-0.4,0.1-0.7,0.1c-0.2,0-0.3,0.1-0.5,0.1s-0.5,0.1-0.7,0.1s-0.3,0.1-0.5,0.1S23.9,57,23.6,57
		c-0.2,0-0.3,0-0.5,0.1c-0.3,0-0.6,0-0.9,0.1c-0.1,0-0.3,0-0.4,0c-0.4,0-0.9,0-1.4,0c-9.5,0-13.2-4.4-13.8-4.6
		c-0.1,0.1-0.1,0.1-0.2,0.2l0,0l0,0c0,0.1-0.1,0.1-0.1,0.2c0,0,0,0-0.1,0.1S6.1,53.3,6,53.4l0,0c-0.1,0.1-0.1,0.2-0.2,0.3l-0.1,0.1
		C5.6,53.9,5.6,54,5.5,54l-0.1,0.1c-0.1,0.1-0.1,0.2-0.2,0.3c0,0,0,0.1-0.1,0.1c-0.1,0.1-0.2,0.2-0.2,0.4c0,0,0,0.1-0.1,0.1
		c-0.1,0.1-0.1,0.2-0.2,0.3c0,0,0,0.1-0.1,0.1c-0.1,0.1-0.1,0.2-0.2,0.3c0,0,0,0,0,0.1l0,0c-0.1,0.1-0.2,0.3-0.2,0.4c0,0,0,0,0,0.1
		C4,56.4,4,56.5,3.9,56.6l0,0l0,0c0,0.1-0.1,0.2-0.1,0.3H0.3L2,59.3h3.9C5.9,59.2,6,59.1,6,59v-0.1c0-0.1,0.1-0.2,0.1-0.3v-0.1
		c0.1-0.1,0.1-0.3,0.2-0.4V58c0.1-0.1,0.1-0.2,0.2-0.3c0,0,0-0.1,0.1-0.1c0.1-0.1,0.1-0.2,0.2-0.3c0,0,0-0.1,0.1-0.1
		C7,57.1,7.1,57,7.2,56.9c0,0,0-0.1,0.1-0.1c0.1-0.1,0.1-0.2,0.2-0.3l0.1-0.1c0.1-0.1,0.1-0.2,0.2-0.2l0.1-0.1c0-0.1,0-0.2,0.1-0.3
		l0,0c0.1-0.1,0.1-0.2,0.2-0.3c0,0,0-0.1,0.1-0.1c0-0.1,0.1-0.1,0.1-0.2c0,0,0-0.1,0.1-0.1S8.6,55,8.7,55c0.6,0.2,4.3,4.6,13.8,4.6
		c0.5,0,0.9,0,1.3,0c0.1,0,0.3,0,0.4,0c0.3,0,0.6,0,0.9-0.1c0.2,0,0.3,0,0.5-0.1c0.3,0,0.5-0.1,0.8-0.1c0.2,0,0.3,0,0.5-0.1
		c0.2,0,0.5-0.1,0.7-0.1s0.3-0.1,0.5-0.1s0.4-0.1,0.7-0.1c0.2,0,0.3-0.1,0.5-0.1c0.2-0.1,0.4-0.1,0.6-0.2c0.1,0,0.3-0.1,0.4-0.1
		c0.2-0.1,0.4-0.1,0.6-0.2c0.1,0,0.2-0.1,0.4-0.1c0.3-0.1,0.5-0.2,0.8-0.3c0.1,0,0.1-0.1,0.2-0.1c0.3-0.1,0.6-0.3,0.9-0.4
		c0.1,0,0.2-0.1,0.3-0.1c0.2-0.1,0.4-0.2,0.6-0.3c0.1-0.1,0.2-0.1,0.3-0.2c0.2-0.1,0.3-0.2,0.5-0.3c0.1-0.1,0.2-0.1,0.3-0.2
		c0.2-0.1,0.3-0.2,0.5-0.3c0.1-0.1,0.2-0.2,0.3-0.2c0.1-0.1,0.3-0.2,0.4-0.3c0.1-0.1,0.2-0.2,0.3-0.3s0.3-0.2,0.4-0.4
		c0.1-0.1,0.2-0.2,0.3-0.3s0.3-0.3,0.4-0.4c0.1-0.1,0.2-0.2,0.2-0.2c0.1-0.2,0.3-0.3,0.4-0.5c0-0.1,0.1-0.1,0.1-0.2l0,0
		c0-0.1,0.1-0.1,0.1-0.2c0.1-0.1,0.2-0.3,0.3-0.4c0.1-0.1,0.1-0.2,0.2-0.2c0.1-0.1,0.2-0.3,0.3-0.4c0.1-0.1,0.1-0.2,0.2-0.3
		c0.1-0.1,0.2-0.3,0.2-0.4c0-0.1,0.1-0.2,0.1-0.2L40,51c0,0,0-0.1,0.1-0.1c0.1-0.3,0.3-0.5,0.4-0.8c0-0.1,0.1-0.1,0.1-0.2
		c0.1-0.3,0.3-0.6,0.4-0.9v-0.1v-0.1c0.1-0.3,0.2-0.6,0.3-0.8c0-0.1,0-0.1,0.1-0.2c0.1-0.3,0.2-0.6,0.3-1v-0.1v-0.1
		c0.1-0.3,0.1-0.6,0.2-1v-0.1c0.1-0.3,0.1-0.7,0.1-1v-0.1v-0.1c0-0.3,0-0.7,0-1C42.2,42.5,42.2,42.2,42.1,41.9z"/>
	<path d="M54.2,30.5c0,0.3,0,0.7,0,1.1c0,0.1,0,0.1,0,0.2c0,0.4,0,0.7,0.1,1.1V33c0,0.1,0,0.1,0,0.2c0,0.2,0,0.4,0.1,0.5
		c0,0.1,0,0.2,0,0.3c0,0.2,0.1,0.4,0.1,0.5s0,0.2,0.1,0.3c0,0.2,0.1,0.4,0.1,0.6c0,0.1,0,0.2,0.1,0.3c0.1,0.3,0.1,0.6,0.2,0.9
		l1.7,1.7c-0.1-0.3-0.2-0.6-0.2-0.9c0-0.1,0-0.2-0.1-0.3c0-0.2-0.1-0.4-0.1-0.6c0-0.1,0-0.2-0.1-0.4c0-0.2-0.1-0.3-0.1-0.5
		c0-0.1,0-0.2,0-0.4s0-0.3-0.1-0.5c0-0.1,0-0.2,0-0.3c0-0.4-0.1-0.7-0.1-1c0-0.1,0-0.1,0-0.2c0-0.3,0-0.7,0-1s0-0.6,0-0.9
		c0-0.1,0-0.2,0-0.2c0-0.2,0-0.4,0-0.5c0-0.2,0-0.4,0.1-0.5c0-0.1,0-0.3,0.1-0.4c0-0.2,0.1-0.3,0.1-0.5c0-0.1,0.1-0.3,0.1-0.4
		s0.1-0.2,0.1-0.3c0-0.1,0.1-0.3,0.1-0.4s0.1-0.2,0.1-0.3c0-0.1,0.1-0.3,0.2-0.4c0-0.1,0.1-0.2,0.1-0.2c0.1-0.1,0.1-0.3,0.2-0.4
		c0-0.1,0.1-0.1,0.1-0.2c0.1-0.1,0.1-0.2,0.2-0.3c0.1-0.1,0.1-0.2,0.2-0.3c0.1-0.1,0.1-0.2,0.2-0.3c0-0.1,0.1-0.1,0.1-0.2
		c0.1-0.1,0.2-0.3,0.3-0.4l0.1-0.1c0.1-0.1,0.2-0.2,0.3-0.2l0.1-0.1c0.1-0.1,0.2-0.1,0.2-0.2c0,0,0.1-0.1,0.2-0.1
		c0.1-0.1,0.2-0.1,0.2-0.1s0.1-0.1,0.2-0.1c0.1,0,0.2-0.1,0.2-0.1s0.1,0,0.1-0.1c0.1,0,0.2-0.1,0.3-0.1h0.1c0.1,0,0.2-0.1,0.4-0.1
		c0.3-0.1,0.7-0.1,1-0.1c1.5,0,3.1,0.6,4.3,1.9c-0.6-0.6-1.2-1.2-1.7-1.7c-0.9-0.9-2.1-1.5-3.2-1.8C60.6,22,60.2,22,59.9,22
		c-0.4,0-0.7,0-1,0.1c-0.1,0-0.2,0.1-0.4,0.1h-0.1c-0.1,0-0.2,0.1-0.2,0.1s-0.1,0-0.2,0.1c-0.1,0-0.2,0.1-0.2,0.1
		c-0.1,0-0.1,0.1-0.2,0.1c-0.1,0-0.2,0.1-0.2,0.1c-0.1,0-0.1,0.1-0.2,0.1C57.1,22.9,57,22.9,57,23l-0.1,0.1
		c-0.1,0.1-0.2,0.2-0.3,0.2l-0.1,0.1c-0.1,0.1-0.2,0.2-0.3,0.4l0,0c0,0.1-0.1,0.1-0.1,0.2c-0.1,0.1-0.1,0.2-0.2,0.3
		c0,0.1-0.1,0.2-0.1,0.2c-0.1,0.1-0.1,0.2-0.2,0.3l0,0c0,0.1-0.1,0.1-0.1,0.2c-0.1,0.1-0.1,0.3-0.2,0.4c0,0.1-0.1,0.2-0.1,0.2
		c0,0.1-0.1,0.2-0.1,0.3V26c0,0.1-0.1,0.2-0.1,0.3c0,0.1-0.1,0.3-0.1,0.4s-0.1,0.2-0.1,0.3c0,0.1,0,0.1-0.1,0.2c0,0.1,0,0.1,0,0.2
		c0,0.2-0.1,0.3-0.1,0.5c0,0.1,0,0.3-0.1,0.4c0,0.2,0,0.4-0.1,0.5c0,0.1,0,0.2,0,0.3c0,0.1,0,0.2,0,0.3s0,0.2,0,0.3
		C54.2,29.9,54.2,30.2,54.2,30.5z"/>
	<path d="M72.7,23.6c0.2,0.3,0.5,0.6,0.7,0.9c0.2,0.2,0.3,0.4,0.5,0.7c0,0,0,0.1,0.1,0.1c0.1,0.2,0.3,0.4,0.4,0.6
		c0.1,0.1,0.1,0.2,0.1,0.2c0.1,0.2,0.2,0.3,0.3,0.5c0.1,0.1,0.1,0.2,0.2,0.3c0.1,0.1,0.2,0.3,0.2,0.4c0.1,0.1,0.1,0.2,0.2,0.3
		c0.1,0.1,0.1,0.3,0.2,0.4s0.1,0.2,0.2,0.3c0.1,0.1,0.1,0.3,0.2,0.4s0.1,0.2,0.2,0.4c0.1,0.1,0.1,0.3,0.2,0.4s0.1,0.2,0.1,0.4
		c0,0.1,0.1,0.2,0.1,0.4c0.1,0.3,0.2,0.6,0.3,0.9v0.1c0.1,0.3,0.2,0.7,0.3,1c0,0.1,0.1,0.2,0.1,0.3c0.1,0.3,0.2,0.5,0.2,0.8
		c0,0.1,0.1,0.2,0.1,0.3c0.1,0.3,0.2,0.7,0.3,1L56,40.9c0,0.2,0.1,0.4,0.1,0.6v0.1c0.1,0.2,0.1,0.4,0.2,0.6l0,0
		c0.1,0.2,0.1,0.4,0.2,0.7c0,0.1,0,0.1,0.1,0.2c0.1,0.2,0.1,0.4,0.2,0.6l0,0l0,0c0.1,0.3,0.2,0.6,0.4,0.9c0,0,0,0.1,0.1,0.1
		c0.1,0.3,0.3,0.6,0.4,0.9c0,0.1,0.1,0.1,0.1,0.1c0.2,0.3,0.3,0.6,0.5,0.9c0,0.1,0.1,0.1,0.1,0.1c0.2,0.3,0.4,0.6,0.6,0.8
		c0,0,0,0,0,0.1l0.1,0.1c0.1,0.2,0.2,0.3,0.4,0.5c0,0.1,0.1,0.1,0.1,0.2c0.2,0.2,0.3,0.4,0.5,0.6c0.6,0.6,1.1,1.2,1.7,1.7
		c-0.2-0.2-0.4-0.4-0.5-0.6c0-0.1-0.1-0.1-0.1-0.2c-0.1-0.2-0.3-0.3-0.4-0.5c0-0.1-0.1-0.1-0.1-0.1c-0.2-0.3-0.4-0.6-0.6-0.8
		c0-0.1-0.1-0.1-0.1-0.1c-0.2-0.3-0.3-0.6-0.5-0.9l-0.1-0.1c-0.2-0.3-0.3-0.6-0.4-0.9c0,0,0-0.1-0.1-0.1c-0.1-0.3-0.3-0.6-0.4-0.9
		v-0.1c-0.1-0.2-0.2-0.4-0.2-0.6c0-0.1,0-0.1-0.1-0.2c-0.1-0.2-0.1-0.4-0.2-0.6l0,0c-0.1-0.2-0.1-0.4-0.2-0.6c0-0.1,0-0.1,0-0.2
		c0-0.2-0.1-0.4-0.1-0.6l21.9-6.2c-0.1-0.3-0.2-0.7-0.3-1c0-0.1-0.1-0.2-0.1-0.3c-0.1-0.3-0.1-0.5-0.2-0.8c0-0.1-0.1-0.2-0.1-0.3
		c-0.1-0.3-0.2-0.7-0.3-1v-0.1c-0.1-0.3-0.2-0.6-0.3-0.9v-0.1c0-0.1-0.1-0.2-0.1-0.3c0-0.1-0.1-0.2-0.1-0.4
		c-0.1-0.1-0.1-0.3-0.2-0.4c0-0.1-0.1-0.2-0.1-0.3c-0.1-0.1-0.1-0.3-0.2-0.4c0-0.1-0.1-0.2-0.1-0.3c-0.1-0.2-0.1-0.3-0.2-0.5
		c-0.1-0.1-0.1-0.2-0.2-0.3c-0.1-0.2-0.2-0.3-0.2-0.5c-0.1-0.1-0.1-0.2-0.1-0.3c-0.1-0.2-0.2-0.3-0.3-0.5c0-0.1-0.1-0.1-0.1-0.2
		c-0.1-0.2-0.3-0.4-0.4-0.6c0,0,0-0.1-0.1-0.1c-0.2-0.2-0.3-0.4-0.5-0.7l0,0c-0.2-0.3-0.5-0.6-0.7-0.9c-0.1-0.1-0.1-0.1-0.2-0.2
		c-0.2-0.3-0.5-0.6-0.8-0.8c-0.4-0.4-0.7-0.8-1.1-1.1c-0.2-0.2-0.4-0.4-0.6-0.6c0.3,0.3,0.5,0.5,0.8,0.8
		C72.6,23.4,72.6,23.5,72.7,23.6z"/>
	<path d="M76.5,54.6c0.2-0.2,0.4-0.4,0.5-0.6l0,0l0.1-0.1c0.1-0.1,0.2-0.3,0.3-0.4c0-0.1,0.1-0.1,0.1-0.2c0.1-0.1,0.2-0.3,0.3-0.5
		l0.1-0.1c0.1-0.2,0.3-0.4,0.4-0.6c0,0,0-0.1,0.1-0.1c0.1-0.2,0.2-0.3,0.3-0.5c0,0,0-0.1,0.1-0.1c0,0,0-0.1,0.1-0.1
		c0.1-0.2,0.2-0.3,0.3-0.5c0-0.1,0.1-0.1,0.1-0.2c0.1-0.2,0.2-0.4,0.3-0.7l-1.7-1.7c-0.1,0.2-0.2,0.5-0.3,0.7c0,0.1-0.1,0.1-0.1,0.2
		c-0.1,0.2-0.2,0.3-0.2,0.5c0,0.1-0.1,0.1-0.1,0.2c-0.1,0.2-0.2,0.3-0.3,0.5l-0.1,0.1c-0.1,0.2-0.3,0.4-0.4,0.6
		c0,0.1-0.1,0.1-0.1,0.2c-0.1,0.1-0.2,0.3-0.3,0.4c0,0.1-0.1,0.1-0.1,0.2c-0.1,0.1-0.2,0.3-0.3,0.4c0,0.1-0.1,0.1-0.1,0.2
		c-0.2,0.2-0.3,0.4-0.5,0.6l-0.1,0.1c-0.2,0.2-0.3,0.3-0.5,0.5l-0.1,0.1c-0.2,0.2-0.4,0.4-0.6,0.5l-0.1,0.1
		c-0.2,0.1-0.4,0.3-0.5,0.4L73,54.8c-0.2,0.2-0.4,0.3-0.6,0.5l-0.1,0.1c-0.2,0.1-0.4,0.3-0.6,0.4c0,0-0.1,0-0.1,0.1
		c-0.2,0.1-0.5,0.3-0.7,0.4c-0.1,0-0.1,0.1-0.2,0.1c-0.2,0.1-0.4,0.2-0.7,0.3c0,0-0.1,0-0.1,0.1c-0.2,0.1-0.5,0.2-0.8,0.3
		c-0.1,0-0.1,0-0.2,0.1c-0.2,0.1-0.5,0.2-0.7,0.3h-0.1c-0.3,0.1-0.5,0.2-0.8,0.2c-0.1,0-0.1,0-0.2,0.1c-0.3,0.1-0.5,0.1-0.8,0.2
		h-0.1c-0.3,0.1-0.6,0.1-0.9,0.2c-0.1,0-0.1,0-0.2,0c-0.3,0-0.6,0.1-0.9,0.1l0,0c-0.3,0-0.6,0.1-0.9,0.1c-0.1,0-0.2,0-0.2,0
		c-0.3,0-0.6,0-1,0c-4.7,0-9.8-2.4-13.6-6.2l0,0l0,0l1.7,1.7c3.8,3.8,8.9,6.2,13.6,6.2c0.3,0,0.6,0,1,0c0.1,0,0.2,0,0.2,0
		c0.3,0,0.6,0,0.9-0.1l0,0c0.3,0,0.6-0.1,0.9-0.1c0.1,0,0.1,0,0.2,0c0.3,0,0.6-0.1,0.9-0.2H68c0.3-0.1,0.5-0.1,0.8-0.2
		c0.1,0,0.1,0,0.2-0.1c0.3-0.1,0.5-0.2,0.8-0.2h0.1c0.2-0.1,0.5-0.2,0.7-0.3c0.1,0,0.1,0,0.2-0.1c0.3-0.1,0.5-0.2,0.8-0.3
		c0,0,0.1,0,0.1-0.1c0.2-0.1,0.4-0.2,0.6-0.3c0.1,0,0.1-0.1,0.2-0.1c0.2-0.1,0.5-0.3,0.7-0.4c0,0,0.1,0,0.1-0.1
		c0.2-0.1,0.4-0.3,0.6-0.4L74,57c0.2-0.2,0.4-0.3,0.6-0.5l0.1-0.1c0.2-0.1,0.4-0.3,0.5-0.4l0.1-0.1c0.2-0.2,0.4-0.4,0.6-0.5l0.1-0.1
		c0.2-0.2,0.3-0.3,0.5-0.5C76.4,54.7,76.5,54.6,76.5,54.6z"/>
	<path d="M81.5,30.1c0,0,0.1,0,0.2,0c0.5,0,1.4,0,2,0.7c-0.6-0.6-1.2-1.2-1.7-1.7c-0.7-0.7-1.6-0.7-2-0.7c-0.1,0-0.1,0-0.2,0
		c-0.7,0-1.6,0-1.7,0l1.7,1.7C79.9,30.1,80.8,30.1,81.5,30.1z"/>
	<polygon points="95.9,21.4 94.2,19.6 94.2,25.4 95.9,27.1 	"/>
	<path d="M113.6,22.2c0.1,0.1,0.1,0.2,0.2,0.2l0.1,0.1c0.1,0.1,0.1,0.1,0.2,0.2l0.1,0.1c0.1,0.1,0.1,0.1,0.2,0.2l0.1,0.1
		c0.1,0.1,0.1,0.2,0.2,0.3l0.1,0.1c0.1,0.1,0.1,0.2,0.2,0.3c0,0,0,0.1,0.1,0.1c0.1,0.1,0.1,0.2,0.2,0.3c0,0,0,0,0,0.1
		c0.1,0.1,0.1,0.2,0.1,0.2s0,0.1,0.1,0.1c0,0.1,0.1,0.1,0.1,0.2v0.1c0,0.1,0.1,0.1,0.1,0.2c0,0,0,0,0,0.1s0.1,0.1,0.1,0.2l0,0
		c0,0,0,0.1,0.1,0.1l0,0l0,0c0,0,0,0,0,0.1l1.7,1.7c0,0,0,0,0-0.1l0,0l0,0l0,0c0,0,0-0.1-0.1-0.1l0,0c0-0.1-0.1-0.1-0.1-0.2
		c0,0,0,0,0-0.1s-0.1-0.1-0.1-0.2v-0.1c0-0.1-0.1-0.1-0.1-0.2c0,0,0-0.1-0.1-0.1c0-0.1-0.1-0.2-0.1-0.2s0,0,0-0.1
		c-0.1-0.1-0.1-0.2-0.2-0.3c0,0,0-0.1-0.1-0.1c-0.1-0.1-0.1-0.2-0.2-0.2l-0.1-0.1c-0.1-0.1-0.1-0.2-0.2-0.2c0,0,0-0.1-0.1-0.1l0,0
		c0-0.1-0.1-0.1-0.1-0.2l-0.1-0.1c-0.1-0.1-0.1-0.1-0.2-0.2l-0.1-0.1c-0.1-0.1-0.1-0.1-0.2-0.2l-0.1-0.1c-0.1-0.1-0.2-0.2-0.3-0.3
		c-0.6-0.6-1.2-1.2-1.7-1.7C113.4,22.1,113.5,22.2,113.6,22.2C113.5,22.1,113.5,22.1,113.6,22.2z"/>
	<path d="M94,49.2c0,0.2,0,0.4,0,0.5v0.1c0,0.1,0,0.2,0,0.4v0.1c0,0.2,0.1,0.4,0.1,0.5v0.1c0,0.1,0.1,0.3,0.1,0.4
		c0,0.1,0,0.1,0.1,0.1v0.1c0,0.1,0,0.1,0.1,0.1c0,0.1,0,0.1,0.1,0.2c0,0.1,0.1,0.2,0.1,0.3c0,0,0,0.1,0.1,0.1l0,0
		c0.1,0.1,0.2,0.2,0.2,0.3c0.6,0.6,1.2,1.2,1.7,1.7c-0.1-0.1-0.2-0.2-0.3-0.3l-0.1-0.1c-0.1-0.1-0.1-0.2-0.1-0.2
		c0-0.1,0-0.1-0.1-0.2c0-0.1-0.1-0.2-0.1-0.3s0-0.1-0.1-0.2c0-0.1-0.1-0.2-0.1-0.4v-0.1c0-0.2-0.1-0.4-0.1-0.5v-0.1
		c0-0.1,0-0.3,0-0.4c0-0.2,0-0.3,0-0.5c0-0.1,0-0.2,0-0.3c0-0.3,0-0.6,0-0.9c0-1.4,0.1-8.3,0.1-11.9c0-3.2,0-4.1,0-4.1s0,0,0-0.1
		v-0.1l0,0c0,0,0-0.1,0.1-0.1l0,0c0,0,0-0.1,0.1-0.1c0,0,0,0,0-0.1c0,0,0-0.1,0.1-0.1V33c0,0,0-0.1,0.1-0.1c0,0,0-0.1,0.1-0.1
		c0,0,0-0.1,0.1-0.1c0,0,0-0.1,0.1-0.1c0,0,0-0.1,0.1-0.1c0,0,0-0.1,0.1-0.1c0.1-0.1,0.1-0.2,0.2-0.3c0,0,0,0,0-0.1
		c0.1-0.1,0.2-0.3,0.2-0.4l0,0c0.1-0.1,0.2-0.3,0.3-0.4c0,0,0,0,0-0.1c0.1-0.1,0.2-0.3,0.3-0.4l0.1-0.1l0.1-0.1l0.1-0.1l0.1-0.1
		l0.1-0.1l0.1-0.1l0.1-0.1l0.1-0.1l0.1-0.1l0.1-0.1l0.1-0.1l0.1-0.1c0.1,0,0.1-0.1,0.2-0.1s0.1-0.1,0.2-0.1s0.1-0.1,0.2-0.1
		s0.1-0.1,0.2-0.1s0.1-0.1,0.2-0.1s0.1-0.1,0.2-0.1s0.1-0.1,0.2-0.1s0.1-0.1,0.2-0.1s0.1-0.1,0.2-0.1s0.1-0.1,0.2-0.1s0.1,0,0.2-0.1
		c0.1,0,0.1,0,0.2-0.1c0.1,0,0.1,0,0.2-0.1c0.1,0,0.1,0,0.2-0.1c0.1,0,0.1,0,0.2,0s0.2,0,0.2,0c0.1,0,0.1,0,0.2,0s0.2,0,0.3,0
		c0.1,0,0.1,0,0.1,0c0.1,0,0.3,0,0.4,0c0.9,0,1.6,0.3,2.1,0.9l-1.7-1.7c-0.5-0.5-1.2-0.9-2.1-0.9c-0.1,0-0.3,0-0.4,0s-0.1,0-0.1,0
		c-0.1,0-0.2,0-0.3,0c-0.1,0-0.1,0-0.2,0s-0.2,0-0.2,0c-0.1,0-0.1,0-0.2,0s-0.2,0-0.2,0.1c-0.1,0-0.1,0-0.2,0.1
		c-0.1,0-0.1,0-0.2,0.1c-0.1,0-0.1,0-0.2,0.1c-0.1,0-0.1,0.1-0.2,0.1S98.8,27,98.7,27s-0.1,0.1-0.2,0.1s-0.1,0.1-0.2,0.1
		s-0.1,0.1-0.2,0.1s-0.1,0.1-0.2,0.1s-0.1,0.1-0.2,0.1s-0.1,0.1-0.1,0.1c-0.1,0-0.1,0.1-0.2,0.1l-0.1,0.1c-0.1,0-0.1,0.1-0.2,0.1
		L97,28c-0.1,0-0.1,0.1-0.1,0.1l-0.1,0.1l-0.1,0.1l-0.1,0.1l-0.1,0.1l-0.1,0.1l-0.1,0.1l-0.1,0.1c0,0.1-0.1,0.1-0.1,0.2l0,0l0,0
		c-0.1,0.1-0.2,0.3-0.3,0.4l0,0c-0.1,0.1-0.2,0.3-0.3,0.4l0,0c-0.1,0.1-0.2,0.3-0.3,0.4c0,0,0,0,0,0.1c-0.1,0.1-0.1,0.2-0.2,0.4l0,0
		c0,0,0,0,0,0.1c0,0,0,0.1-0.1,0.1c0,0,0,0.1-0.1,0.1v0.1c0,0,0,0.1-0.1,0.1c0,0,0,0,0,0.1c0,0,0,0.1-0.1,0.1l0,0c0,0,0,0.1-0.1,0.1
		l0,0c-0.1,0.2-0.2,0.3-0.2,0.4c0,0,0,0.9,0,4.1c0,3.7-0.1,10.6-0.1,11.9c0,0.3,0,0.6,0,0.9C94,49,94,49.1,94,49.2z"/>
	<path d="M118,28.9C118,28.9,117.9,28.9,118,28.9c-0.1,0.1-0.2,0.2-0.3,0.3l0,0l0,0c-0.1,0.2-0.3,0.3-0.4,0.5l0,0
		c-0.1,0.2-0.2,0.3-0.3,0.4l0,0c-0.1,0.1-0.2,0.3-0.2,0.4l0,0c-0.1,0.1-0.1,0.2-0.2,0.4l0,0l0,0l-0.1,0.1l0,0c0,0,0,0.1-0.1,0.1l0,0
		c0,0,0,0.1-0.1,0.1l0,0v0.1c0,0.1,0,1,0,4.6c0,3-0.1,9.2-0.1,11.9c0,0.2,0,0.5,0,0.7c0,0.1,0,0.1,0,0.2c0,0.2,0,0.4,0,0.5
		s0,0.1,0,0.2v0.1c0,0.1,0,0.1,0,0.2c0,0.1,0,0.3,0.1,0.4v0.1c0,0.2,0.1,0.3,0.1,0.5v0.1c0,0.1,0.1,0.2,0.1,0.2s0,0.1,0.1,0.1
		c0,0.1,0,0.1,0.1,0.2c0,0.1,0.1,0.2,0.2,0.3l0.1,0.1c0,0,0,0,0,0.1c0.1,0.1,0.2,0.2,0.3,0.3l1.7,1.7c-0.1-0.1-0.2-0.2-0.3-0.4
		l-0.1-0.1c-0.1-0.1-0.1-0.2-0.2-0.3c0-0.1,0-0.1-0.1-0.2c-0.1-0.1-0.1-0.2-0.1-0.4v-0.1c0-0.2-0.1-0.3-0.1-0.5v-0.1
		c0-0.1,0-0.3-0.1-0.4c0-0.1,0-0.1,0-0.2c0-0.1,0-0.2,0-0.3c0-0.2,0-0.4,0-0.6c0-0.1,0-0.1,0-0.2c0-0.2,0-0.5,0-0.7
		c0-2.7,0.1-8.9,0.1-11.9c0-3.6,0-4.6,0-4.6c0.1-0.1,0.1-0.3,0.2-0.5l0,0c0,0,0,0,0-0.1c0.1-0.1,0.1-0.2,0.2-0.3c0,0,0,0,0-0.1
		c0.1-0.1,0.2-0.2,0.2-0.4c0,0,0,0,0-0.1c0.1-0.1,0.2-0.3,0.3-0.4l0,0c0.1-0.2,0.2-0.3,0.4-0.5l0,0c0.1-0.1,0.1-0.2,0.2-0.3
		c0,0,0-0.1,0.1-0.1c0.1-0.1,0.1-0.1,0.2-0.2l0.1-0.1c0.1-0.1,0.1-0.1,0.2-0.2l0.1-0.1c0.1-0.1,0.1-0.1,0.2-0.2l0.1-0.1
		c0.1-0.1,0.1-0.1,0.2-0.2l0.1-0.1c0.1-0.1,0.2-0.2,0.3-0.2c0,0,0,0,0.1-0.1s0.2-0.1,0.3-0.2l0.1-0.1c0.1,0,0.2-0.1,0.2-0.1L122,28
		c0.1,0,0.2-0.1,0.2-0.1s0.1,0,0.1-0.1c0.1,0,0.2-0.1,0.3-0.1c0,0,0.1,0,0.1-0.1c0.1-0.1,0.3-0.1,0.4-0.2c0,0,0,0,0.1,0
		s0.2-0.1,0.4-0.1h0.1c0.1,0,0.2-0.1,0.3-0.1c0.1,0,0.1,0,0.2,0s0.2,0,0.3-0.1c0.1,0,0.1,0,0.2,0s0.2,0,0.3,0c0.1,0,0.1,0,0.2,0
		c0.2,0,0.3,0,0.5,0c1.2,0,2,0.4,2.6,1l-1.7-1.7c-0.6-0.6-1.4-1-2.6-1c-0.2,0-0.3,0-0.5,0c-0.1,0-0.1,0-0.2,0s-0.2,0-0.3,0
		c-0.1,0-0.1,0-0.2,0s-0.2,0-0.3,0.1c-0.1,0-0.1,0-0.2,0s-0.2,0-0.3,0.1h-0.1c-0.1,0-0.2,0.1-0.4,0.1c0,0,0,0-0.1,0
		c-0.1,0.1-0.3,0.1-0.4,0.2c0,0-0.1,0-0.1,0.1c-0.1,0-0.2,0.1-0.3,0.1c0,0-0.1,0-0.1,0.1c-0.1,0-0.2,0.1-0.2,0.1l-0.1,0.1
		c-0.1,0-0.2,0.1-0.2,0.1l-0.1,0.1c-0.1,0.1-0.2,0.1-0.3,0.2c0,0,0,0-0.1,0c-0.1,0.1-0.2,0.2-0.3,0.2c0,0-0.1,0-0.1,0.1
		c-0.1,0.1-0.2,0.1-0.2,0.2l-0.1,0.1c-0.1,0.1-0.1,0.1-0.2,0.2l-0.1,0.1c-0.1,0.1-0.1,0.1-0.2,0.2l-0.1,0.1
		C118.1,28.7,118,28.8,118,28.9z"/>
	<polygon points="97.6,57.5 78.1,57.5 79.8,59.2 99.3,59.2 99.3,55 97.6,53.3 	"/>
	<path d="M150.4,30.7c0.1-0.1,0.2-0.2,0.3-0.3c0.1-0.1,0.1-0.1,0.2-0.2c0.1-0.1,0.1-0.2,0.2-0.2c0.1-0.1,0.1-0.1,0.2-0.2
		c0.1-0.1,0.1-0.2,0.2-0.2c0.1-0.1,0.1-0.1,0.2-0.2c0.1-0.1,0.1-0.2,0.2-0.2c0.1-0.1,0.1-0.1,0.2-0.2c0.1-0.1,0.2-0.2,0.2-0.2
		c0.1-0.1,0.1-0.1,0.2-0.2c0.1-0.1,0.2-0.1,0.3-0.2s0.2-0.1,0.2-0.2c0.1-0.1,0.2-0.1,0.3-0.2s0.2-0.1,0.2-0.2
		c0.1-0.1,0.2-0.1,0.3-0.2s0.2-0.1,0.3-0.2s0.2-0.1,0.3-0.2s0.2-0.1,0.3-0.2s0.2-0.1,0.3-0.2c0.1,0,0.2-0.1,0.3-0.1
		c0.1-0.1,0.2-0.1,0.4-0.2c0.1,0,0.2-0.1,0.3-0.1s0.3-0.1,0.4-0.1c0.1,0,0.2-0.1,0.3-0.1s0.3-0.1,0.4-0.1c0.1,0,0.2-0.1,0.3-0.1
		c0.2,0,0.3-0.1,0.5-0.1c0.1,0,0.2,0,0.3-0.1c0.2,0,0.4,0,0.6-0.1c0.1,0,0.2,0,0.3,0c0.3,0,0.6,0,0.9,0c1.9,0,3.2,0.5,4,1.3
		c-0.3-0.3-0.6-0.6-0.9-0.9c-0.3-0.3-0.6-0.6-0.9-0.9c-0.6-0.6-1.5-1.1-2.7-1.3c-0.4-0.1-0.8-0.1-1.3-0.1c-0.3,0-0.6,0-0.9,0
		c-0.1,0-0.2,0-0.3,0c-0.2,0-0.4,0-0.6,0.1c-0.1,0-0.2,0-0.3,0.1c-0.2,0-0.3,0.1-0.5,0.1c-0.1,0-0.2,0.1-0.3,0.1s-0.3,0.1-0.4,0.1
		c-0.1,0-0.2,0.1-0.3,0.1s-0.3,0.1-0.4,0.1c-0.1,0-0.2,0.1-0.3,0.1c-0.1,0.1-0.2,0.1-0.4,0.2c-0.1,0-0.2,0.1-0.3,0.1
		c-0.1,0.1-0.2,0.1-0.3,0.2s-0.2,0.1-0.3,0.2s-0.2,0.1-0.3,0.2s-0.2,0.1-0.3,0.2s-0.2,0.1-0.3,0.2s-0.2,0.1-0.2,0.2
		c-0.1,0.1-0.2,0.1-0.3,0.2s-0.2,0.1-0.2,0.2c-0.1,0.1-0.2,0.1-0.3,0.2s-0.1,0.1-0.2,0.2c-0.1,0.1-0.2,0.2-0.2,0.2
		c-0.1,0.1-0.1,0.1-0.2,0.2c-0.1,0.1-0.2,0.2-0.2,0.2c-0.1,0.1-0.1,0.1-0.2,0.2c-0.1,0.1-0.1,0.2-0.2,0.2c-0.1,0.1-0.1,0.1-0.2,0.2
		c-0.1,0.1-0.1,0.2-0.2,0.2c-0.1,0.1-0.1,0.1-0.2,0.2l-0.1,0.1c-0.1,0.1-0.1,0.2-0.2,0.2l-3.3-1.9l1.7,1.7L150.4,30.7z"/>
	<polygon points="120.2,57.5 101.1,57.5 102.8,59.2 122,59.2 122,55 120.3,53.3 	"/>
	<path d="M137,22.5c0.2,0.2,0.3,0.4,0.4,0.6c0,0,0,0.1,0.1,0.1c0.1,0.1,0.2,0.3,0.3,0.5l0.1,0.1c0.2,0.4,0.4,0.7,0.6,1.1
		c0,0,0,0.1,0.1,0.1c0.1,0.2,0.1,0.3,0.2,0.5v0.1c0.1,0.2,0.1,0.4,0.2,0.5v0.1c0,0.1,0.1,0.3,0.1,0.4s0,0.1,0,0.2
		c0,0.2,0.1,0.3,0.1,0.5c0,0,0,0,0,0.1c0,0.2,0.1,0.4,0.1,0.5V28c0,0.2,0,0.4,0,0.7c0,1.8,0,4.6-0.1,7.5c0,4.3-0.1,11.2-0.1,11.9
		c0,0.2,0,0.5,0,0.7c0,0.1,0,0.2,0,0.2c0,0.2,0,0.4,0,0.5s0,0.1,0,0.2v0.1c0,0.1,0,0.1,0,0.2c0,0.1,0,0.3,0.1,0.4v0.1
		c0,0.2,0.1,0.3,0.1,0.5v0.1c0,0.1,0.1,0.2,0.1,0.3v0.1c0,0.1,0.1,0.1,0.1,0.2c0,0.1,0.1,0.2,0.2,0.3l0.1,0.1c0,0,0,0,0,0.1
		c0.1,0.1,0.2,0.2,0.3,0.3c0.6,0.6,1.1,1.2,1.7,1.7c-0.1-0.1-0.2-0.2-0.3-0.4l-0.1-0.1c-0.1-0.1-0.1-0.2-0.2-0.3
		c0-0.1-0.1-0.1-0.1-0.2c-0.1-0.1-0.1-0.2-0.1-0.4v-0.1c-0.1-0.2-0.1-0.3-0.1-0.5v-0.1c0-0.1,0-0.3-0.1-0.4c0-0.1,0-0.1,0-0.2
		c0-0.1,0-0.2,0-0.3c0-0.2,0-0.4,0-0.5s0-0.1,0-0.2c0-0.2,0-0.5,0-0.7c0-0.7,0.1-7.6,0.1-11.9c0-2.9,0-5.7,0.1-7.5
		c0-0.2,0-0.4,0-0.7c0,0,0,0,0-0.1c0,0,0,0,0-0.1c0-0.2,0-0.4-0.1-0.5c0,0,0,0,0-0.1c0-0.2-0.1-0.3-0.1-0.5c0-0.1,0-0.1,0-0.2
		s-0.1-0.3-0.1-0.4v-0.1c-0.1-0.2-0.1-0.4-0.2-0.5l0,0v-0.1c-0.1-0.2-0.1-0.3-0.2-0.5c0-0.1,0-0.1-0.1-0.2c-0.1-0.2-0.2-0.4-0.3-0.5
		l0,0c-0.1-0.2-0.2-0.4-0.3-0.5c0-0.1-0.1-0.1-0.1-0.2c-0.1-0.1-0.2-0.3-0.3-0.4c0,0,0-0.1-0.1-0.1l0,0c-0.1-0.2-0.3-0.4-0.4-0.6
		l-0.1-0.1c-0.2-0.2-0.3-0.4-0.5-0.5c-0.6-0.6-1.1-1.2-1.7-1.7c0.2,0.2,0.3,0.4,0.5,0.5C136.9,22.4,137,22.4,137,22.5z"/>
	<polygon points="143.3,57.5 123.8,57.5 125.5,59.2 145,59.2 145.1,55 143.3,53.3 	"/>
	<path d="M156.6,51.3c0,0,0-0.1-0.1-0.1c-0.1-0.2-0.2-0.4-0.3-0.5c0-0.1-0.1-0.1-0.1-0.2c-0.1-0.2-0.2-0.4-0.3-0.7
		c0-0.1,0-0.1-0.1-0.2c-0.1-0.2-0.1-0.4-0.2-0.6c0-0.1,0-0.2-0.1-0.2c0-0.2-0.1-0.4-0.1-0.5s0-0.1,0-0.2c0-0.2-0.1-0.5-0.1-0.8
		s0-0.6,0-0.8c0-0.3,0-0.7,0-1s0-0.5,0.1-0.7c0,0,0-0.1,0-0.2c0-0.3,0.1-0.5,0.2-0.8l0,0c0.1-0.2,0.1-0.5,0.2-0.7
		c0-0.1,0-0.1,0.1-0.2c0-0.1,0.1-0.3,0.1-0.4c0-0.1,0.1-0.2,0.1-0.2c0.1-0.1,0.1-0.2,0.2-0.3c0-0.1,0.1-0.1,0.1-0.2
		c0.1-0.1,0.1-0.2,0.2-0.3c0.1-0.1,0.1-0.2,0.2-0.3c0-0.1,0.1-0.1,0.1-0.2c0.1-0.1,0.1-0.2,0.2-0.3c0-0.1,0.1-0.1,0.1-0.2
		c0-0.1,0.1-0.1,0.1-0.2c0.1-0.1,0.1-0.1,0.2-0.2c0-0.1,0.1-0.1,0.1-0.1c0.1-0.1,0.1-0.1,0.2-0.2l0.1-0.1c0.1-0.1,0.1-0.1,0.2-0.1
		l0.1-0.1c0.1,0,0.1-0.1,0.2-0.1l0.1-0.1c0.1,0,0.1-0.1,0.2-0.1l0.1-0.1c0.1,0,0.1-0.1,0.2-0.1c0,0,0.1,0,0.1-0.1
		c0.1,0,0.2-0.1,0.2-0.1c1.5-0.8,2.9-1.1,4.1-1.1c0.7,0,1.4,0.1,1.9,0.3l-1.7-1.7c-0.6-0.2-1.2-0.3-1.9-0.3c-1.3,0-2.7,0.3-4.1,1.1
		c-0.1,0-0.1,0.1-0.2,0.1c0,0,0,0-0.1,0s-0.1,0.1-0.2,0.1c0,0-0.1,0-0.1,0.1c-0.1,0-0.1,0.1-0.2,0.1l-0.1,0.1
		c-0.1,0-0.1,0.1-0.2,0.1l-0.1,0.1c-0.1,0-0.1,0.1-0.2,0.2l-0.1,0.1c-0.1,0.1-0.1,0.1-0.2,0.2l-0.1,0.1c-0.1,0.1-0.1,0.1-0.2,0.2
		c0,0.1-0.1,0.1-0.1,0.2c0,0,0,0-0.1,0.1l-0.1,0.1c-0.1,0.1-0.1,0.2-0.2,0.3c0,0.1-0.1,0.1-0.1,0.2c-0.1,0.1-0.1,0.2-0.2,0.3
		c0,0,0,0.1-0.1,0.1c0,0.1-0.1,0.1-0.1,0.2c0,0.1-0.1,0.1-0.1,0.2c-0.1,0.1-0.1,0.2-0.1,0.3s-0.1,0.2-0.1,0.2v0.1
		c0,0.1-0.1,0.2-0.1,0.3s-0.1,0.1-0.1,0.2c-0.1,0.2-0.1,0.4-0.2,0.6c0,0,0,0,0,0.1l0,0c-0.1,0.3-0.1,0.5-0.1,0.8c0,0.1,0,0.2,0,0.3
		c0,0.2,0,0.4-0.1,0.6l0,0l0,0c0,0.3,0,0.6,0,0.9c0,0.3,0,0.5,0,0.8l0,0c0,0.2,0.1,0.5,0.1,0.7c0,0.1,0,0.1,0,0.2
		c0,0.2,0.1,0.4,0.1,0.5s0,0.2,0.1,0.2c0.1,0.2,0.1,0.4,0.2,0.6c0,0.1,0,0.1,0.1,0.2l0,0c0.1,0.2,0.2,0.4,0.3,0.6
		c0,0.1,0,0.1,0.1,0.1c0.1,0.2,0.2,0.4,0.3,0.5c0,0,0,0.1,0.1,0.1c0.1,0.2,0.2,0.3,0.3,0.5c0,0,0,0.1,0.1,0.1l0.1,0.1
		c0.1,0.2,0.3,0.4,0.5,0.5l1.7,1.7c-0.2-0.2-0.3-0.3-0.5-0.5l-0.1-0.1C156.9,51.7,156.8,51.5,156.6,51.3z"/>
	<path d="M173.2,21.8c0.1,0.1,0.2,0.2,0.3,0.3c0.1,0.1,0.1,0.1,0.1,0.2c0.1,0.1,0.2,0.2,0.2,0.3l0.1,0.1c0.1,0.1,0.2,0.2,0.2,0.4
		c0,0.1,0.1,0.1,0.1,0.2c0.1,0.1,0.1,0.2,0.2,0.3c0,0.1,0.1,0.1,0.1,0.2c0.1,0.1,0.1,0.2,0.1,0.3c0,0.1,0.1,0.2,0.1,0.2
		c0,0.1,0.1,0.2,0.1,0.2c0.1,0.2,0.2,0.5,0.2,0.7c0,0,0,0,0,0.1c0.1,0.3,0.1,0.5,0.2,0.8c0,0.1,0,0.1,0,0.2c0,0.2,0.1,0.5,0.1,0.7
		v0.1c0,0.3,0.1,0.6,0.1,0.8c0,0.1,0,0.2,0,0.2c0,0.2,0,0.3,0,0.5c0,0.1,0,0.2,0,0.3c0,0.2,0,0.3,0,0.5c0,0.1,0,0.2,0,0.3
		c0,0.2,0,0.3,0,0.5c0,0.1,0,0.2,0,0.2c0,0.2,0,0.5,0,0.7l-0.1,8.5l-0.1,8.6c0,0.1,0,0.2,0,0.3v0.1v0.1l0,0c0,0.1,0,0.2,0.1,0.4
		c0,0,0,0,0,0.1s0.1,0.2,0.1,0.3l0,0l0,0c0,0,0,0.1,0.1,0.1l0,0l0.1,0.1l0,0l0,0l0.1,0.1l1.7,1.7l-0.1-0.1c0,0,0,0,0-0.1
		c0,0,0-0.1-0.1-0.1c0,0,0,0,0-0.1V51l0,0c0-0.1-0.1-0.2-0.1-0.3c0,0,0,0,0-0.1s0-0.2-0.1-0.4c0-0.1,0-0.1,0-0.2v-0.1
		c0-0.1,0-0.2,0-0.3l0.1-8.6l0.1-8.5c0-0.2,0-0.5,0-0.7c0-0.1,0-0.2,0-0.2c0-0.2,0-0.3,0-0.5c0-0.1,0-0.2,0-0.3c0-0.2,0-0.3,0-0.5
		c0-0.1,0-0.2,0-0.3c0-0.1,0-0.3,0-0.4s0-0.1,0-0.2c0,0,0,0,0-0.1c0-0.3-0.1-0.6-0.1-0.8c0-0.1,0-0.1,0-0.1c0-0.2-0.1-0.5-0.1-0.7
		c0-0.1,0-0.1,0-0.2c-0.1-0.3-0.1-0.5-0.2-0.8c0,0,0,0,0-0.1c-0.1-0.2-0.1-0.5-0.2-0.7v-0.1c0-0.1,0-0.1-0.1-0.2
		c0-0.1-0.1-0.1-0.1-0.2s-0.1-0.2-0.1-0.3c0-0.1-0.1-0.1-0.1-0.2c-0.1-0.1-0.1-0.2-0.2-0.3c0-0.1-0.1-0.1-0.1-0.2
		c-0.1-0.1-0.2-0.2-0.2-0.4l-0.1-0.1l0,0c-0.1-0.1-0.2-0.2-0.2-0.3c0-0.1-0.1-0.1-0.1-0.2c-0.1-0.2-0.3-0.3-0.4-0.5
		c-0.6-0.6-1.1-1.2-1.7-1.7l0,0l0,0C173.1,21.7,173.2,21.8,173.2,21.8z"/>
	<path d="M181.1,56.4l0.1-0.1c0.1-0.1,0.1-0.1,0.2-0.2c0,0,0,0,0.1-0.1l0,0l0.1-0.1c0-0.1,0.1-0.1,0.1-0.2c0-0.1,0.1-0.1,0.1-0.2
		l0.1-0.1l0.1-0.1c0,0,0-0.1,0.1-0.1l0.1-0.1c0,0,0-0.1,0.1-0.1l0.1-0.1c0,0,0-0.1,0.1-0.1c0,0,0-0.1,0.1-0.1v-0.1
		c0,0,0-0.1,0.1-0.1c0-0.1,0.1-0.1,0.1-0.2l-0.9-3.7l-1.7-1.7l0.9,3.7c0,0.1-0.1,0.1-0.1,0.2c0,0,0,0.1-0.1,0.1c0,0,0,0,0,0.1
		c0,0,0,0.1-0.1,0.1c0,0,0,0-0.1,0.1l-0.1,0.1c0,0,0,0.1-0.1,0.1l-0.1,0.1c0,0,0,0-0.1,0.1c0,0.1-0.1,0.1-0.1,0.2c0,0,0,0,0,0.1
		c-0.1,0.2-0.2,0.3-0.4,0.5l0,0c-0.1,0.1-0.1,0.2-0.2,0.3c0,0,0,0-0.1,0.1c-0.2,0.2-0.4,0.4-0.6,0.6l-0.1,0.1
		c-0.1,0.1-0.2,0.2-0.3,0.3c0,0,0,0-0.1,0.1s-0.2,0.2-0.3,0.3c0,0-0.1,0-0.1,0.1c-0.1,0.1-0.2,0.2-0.3,0.2c0,0-0.1,0-0.1,0.1
		c-0.1,0.1-0.3,0.2-0.4,0.3h-0.1c-0.1,0.1-0.2,0.2-0.4,0.2c0,0-0.1,0-0.1,0.1c-0.1,0.1-0.3,0.2-0.4,0.3l0,0
		c-0.1,0.1-0.3,0.2-0.5,0.2c0,0-0.1,0-0.1,0.1c-0.1,0.1-0.3,0.1-0.4,0.2h-0.1c-0.2,0.1-0.3,0.1-0.5,0.2h-0.1c-0.1,0-0.3,0.1-0.4,0.1
		H174c-0.2,0-0.4,0.1-0.6,0.1h-0.1c-0.2,0-0.3,0-0.5,0.1c-0.1,0-0.1,0-0.2,0c-0.2,0-0.4,0-0.6,0c-0.2,0-0.4,0-0.6,0
		c-2.8-0.2-4.7-1.5-5.9-2.7c0.1-0.1,0.1-0.2,0.2-0.3l-1.7-1.7c-0.1,0.1-0.2,0.2-0.3,0.4l-0.1,0.1c-0.1,0.1-0.1,0.2-0.2,0.3l-0.1,0.1
		c-0.1,0.1-0.1,0.2-0.2,0.3l-0.1,0.1c-0.1,0.1-0.1,0.1-0.2,0.2c-0.1,0.1-0.1,0.1-0.1,0.2c-0.1,0.1-0.1,0.1-0.2,0.2
		c-0.1,0.1-0.1,0.1-0.2,0.2c-0.1,0.1-0.2,0.1-0.2,0.2c-0.1,0.1-0.1,0.1-0.2,0.2c-0.1,0.1-0.2,0.1-0.3,0.2c-0.1,0-0.1,0.1-0.2,0.1
		c-0.1,0.1-0.2,0.2-0.3,0.2s-0.1,0.1-0.2,0.1c-0.2,0.1-0.4,0.2-0.5,0.3c0,0-0.1,0-0.1,0.1c-0.2,0.1-0.3,0.2-0.5,0.3
		c-0.1,0-0.1,0.1-0.2,0.1c-0.1,0.1-0.3,0.1-0.4,0.2c-0.1,0-0.2,0.1-0.3,0.1s-0.3,0.1-0.4,0.1c-0.1,0-0.2,0.1-0.3,0.1
		s-0.3,0.1-0.5,0.1c-0.1,0-0.2,0-0.3,0.1c-0.2,0-0.3,0.1-0.5,0.1c-0.1,0-0.2,0-0.3,0.1c-0.2,0-0.4,0-0.6,0.1c-0.1,0-0.2,0-0.3,0
		c-0.3,0-0.6,0-1,0s-0.9,0-1.3-0.1c-2.9-0.2-5.2-1.3-6.8-3c0.6,0.6,1.1,1.2,1.7,1.7c1.9,1.9,4.6,3,8.1,3c0.3,0,0.7,0,1,0
		c0.1,0,0.2,0,0.3,0c0.2,0,0.4,0,0.6-0.1c0.1,0,0.2,0,0.3,0c0.2,0,0.4-0.1,0.5-0.1s0.2,0,0.3-0.1c0.2,0,0.3-0.1,0.5-0.1
		c0.1,0,0.2-0.1,0.3-0.1s0.3-0.1,0.4-0.1c0.1,0,0.2-0.1,0.3-0.1c0.1-0.1,0.3-0.1,0.4-0.2c0.1,0,0.1-0.1,0.2-0.1
		c0.2-0.1,0.4-0.2,0.5-0.3c0,0,0,0,0.1,0c0.2-0.1,0.4-0.2,0.6-0.3l0.1-0.1c0.1-0.1,0.2-0.2,0.4-0.3c0.1,0,0.1-0.1,0.2-0.1
		c0.1-0.1,0.2-0.2,0.3-0.2s0.1-0.1,0.2-0.1c0.1-0.1,0.2-0.2,0.3-0.2l0.1-0.1c0.1-0.1,0.2-0.2,0.2-0.2l0.1-0.1
		c0.1-0.1,0.2-0.2,0.3-0.3l0.1-0.1c0.1-0.1,0.2-0.3,0.3-0.4c0.1-0.1,0.2-0.3,0.3-0.4c0.6,0.6,1.1,1.2,1.7,1.7
		c1.3,1.3,3.4,2.7,6.5,2.7c0.2,0,0.4,0,0.6,0c0.1,0,0.1,0,0.2,0c0.2,0,0.3,0,0.5-0.1h0.1c0.2,0,0.4-0.1,0.6-0.1h0.1
		c0.1,0,0.3-0.1,0.4-0.1h0.1c0.2-0.1,0.4-0.1,0.5-0.2h0.1c0.1-0.1,0.3-0.1,0.4-0.2c0,0,0.1,0,0.1-0.1c0.2-0.1,0.3-0.1,0.5-0.2l0,0
		c0.2-0.1,0.3-0.2,0.4-0.2l0.1-0.1c0.1-0.1,0.2-0.1,0.3-0.2c0,0,0.1,0,0.1-0.1c0.1-0.1,0.3-0.2,0.4-0.3l0.1-0.1
		c0.1-0.1,0.2-0.2,0.3-0.2l0.1-0.1c0.1-0.1,0.2-0.2,0.3-0.3c0,0,0,0,0.1-0.1s0.2-0.2,0.3-0.2l0.1-0.1c0.1-0.1,0.2-0.2,0.3-0.3l0,0
		C180.9,56.5,181,56.5,181.1,56.4z"/>
	<path d="M183.9,30.4c1.6,0,2.5,0.4,3.1,1c-0.6-0.6-1.1-1.2-1.7-1.7c-0.6-0.6-1.5-1-3.1-1h-0.6l1.7,1.7H183.9z"/>
	<polygon points="199.3,21.4 197.6,19.6 197.6,25.5 199.3,27.2 	"/>
	<path d="M197.5,49.6c0,0.1,0,0.3,0,0.4v0.1v0.1v0.1c0,0.1,0,0.2,0.1,0.3v0.1c0,0.1,0.1,0.3,0.1,0.4v0.1c0,0.1,0,0.1,0.1,0.2v0.1
		c0,0.1,0,0.1,0.1,0.2c0,0.1,0.1,0.2,0.1,0.3l0.1,0.1c0,0,0,0,0,0.1c0.1,0.1,0.2,0.2,0.2,0.3c0.6,0.6,1.1,1.2,1.7,1.7
		c-0.1-0.1-0.2-0.2-0.3-0.3l-0.1-0.1c-0.1-0.1-0.1-0.2-0.1-0.3s0-0.1-0.1-0.2c0-0.1-0.1-0.2-0.1-0.3v-0.1c0-0.1-0.1-0.3-0.1-0.4
		v-0.1c0-0.1,0-0.2-0.1-0.3V52c0-0.1,0-0.1,0-0.2c0-0.1,0-0.3,0-0.4c0-0.1,0-0.1,0-0.2c0-0.2,0-0.4,0-0.5c0-2.5,0.1-15.8,0.1-16.5
		c0,0,0,0,0-0.1V34c0,0,0,0,0-0.1v-0.1c0,0,0,0,0-0.1c0,0,0-0.1,0.1-0.1c0,0,0,0,0-0.1c0,0,0-0.1,0.1-0.1c0,0,0,0,0-0.1
		c0,0,0-0.1,0.1-0.1v-0.1c0-0.1,0-0.1,0.1-0.2c0,0,0,0,0-0.1s0.1-0.1,0.1-0.2c0,0,0,0,0-0.1s0.1-0.1,0.1-0.2l0,0
		c0.1-0.1,0.1-0.2,0.2-0.4c0,0,0,0,0-0.1c0.1-0.1,0.1-0.2,0.2-0.4l0,0c0.1-0.1,0.2-0.2,0.2-0.4c0,0,0,0,0.1-0.1s0.2-0.2,0.3-0.4
		l0.1-0.1l0.1-0.1l0.1-0.1l0.1-0.1l0.1-0.1l0.1-0.1l0.1-0.1l0.1-0.1l0.1-0.1l0.1-0.1l0.1-0.1c0.1,0,0.1-0.1,0.2-0.1l0.1-0.1
		c0.1,0,0.1-0.1,0.2-0.1l0.1-0.1c0.1,0,0.1-0.1,0.2-0.1l0.1-0.1c0.1,0,0.1-0.1,0.2-0.1c0,0,0.1,0,0.1-0.1c0.1,0,0.1-0.1,0.2-0.1
		c0.1,0,0.1,0,0.1-0.1c0.1,0,0.1-0.1,0.2-0.1c0.1,0,0.1,0,0.2-0.1c0.1,0,0.1,0,0.2-0.1c0.1,0,0.1,0,0.2,0c0.1,0,0.1,0,0.2-0.1
		c0.1,0,0.1,0,0.2,0c0.1,0,0.2,0,0.2,0c0.1,0,0.1,0,0.2,0c0.1,0,0.2,0,0.3,0h0.1c0.1,0,0.3,0,0.4,0c1,0,1.8,0.4,2.3,0.9
		c-0.6-0.6-1.1-1.2-1.7-1.7c-0.5-0.5-1.3-0.9-2.3-0.9c-0.1,0-0.3,0-0.4,0h-0.1c-0.1,0-0.2,0-0.3,0s-0.1,0-0.2,0c-0.1,0-0.2,0-0.2,0
		c-0.1,0-0.1,0-0.2,0c-0.1,0-0.1,0-0.2,0.1c-0.1,0-0.1,0-0.2,0.1c-0.1,0-0.1,0-0.2,0.1c-0.1,0-0.1,0-0.2,0.1c-0.1,0-0.1,0-0.2,0.1
		c-0.1,0-0.1,0-0.2,0.1c-0.1,0-0.1,0.1-0.2,0.1c-0.1,0-0.1,0.1-0.2,0.1c-0.1,0-0.1,0.1-0.2,0.1c-0.1,0-0.1,0.1-0.1,0.1
		c-0.1,0-0.1,0.1-0.2,0.1c-0.1,0-0.1,0.1-0.1,0.1l-0.1,0.1c-0.1,0-0.1,0.1-0.1,0.1l-0.1,0.1l-0.1,0.1L200,28l-0.1,0.1l-0.1,0.1
		l-0.1,0.1l-0.1,0.1l-0.1,0.1l-0.1,0.1l-0.1,0.1l-0.1,0.1c0,0,0,0.1-0.1,0.1l0,0c-0.1,0.1-0.2,0.2-0.3,0.4c0,0,0,0.1-0.1,0.1
		c-0.1,0.1-0.2,0.2-0.2,0.3l0,0c-0.1,0.1-0.1,0.2-0.2,0.4c0,0,0,0.1-0.1,0.1c-0.1,0.1-0.1,0.2-0.2,0.3l0,0c0,0,0,0.1-0.1,0.1
		c0,0,0,0.1-0.1,0.1l-0.1,0.1c0,0,0,0.1-0.1,0.1c0,0,0,0.1-0.1,0.1v0.1c0,0,0,0.1-0.1,0.1v0.1c0,0,0,0.1-0.1,0.1v0.1v0.1v0.1v0.1
		v0.1V32c0,0,0,0,0,0.1c0,0,0,0,0,0.1l0,0c0,0.7-0.1,13.9-0.1,16.5c0,0.2,0,0.4,0,0.5C197.5,49.5,197.5,49.5,197.5,49.6z"/>
	<path d="M231,30.7c0.1-0.1,0.2-0.2,0.3-0.4c0-0.1,0.1-0.1,0.1-0.2c0.1-0.1,0.1-0.2,0.2-0.2c0.1-0.1,0.1-0.1,0.2-0.2
		c0.1-0.1,0.1-0.2,0.2-0.2c0.1-0.1,0.1-0.1,0.2-0.2c0.1-0.1,0.1-0.2,0.2-0.2c0.1-0.1,0.1-0.1,0.2-0.2c0.1-0.1,0.2-0.2,0.2-0.2
		c0.1-0.1,0.1-0.1,0.2-0.2c0.1-0.1,0.2-0.1,0.3-0.2s0.2-0.1,0.2-0.2c0.1-0.1,0.2-0.1,0.3-0.2s0.2-0.1,0.2-0.2
		c0.1-0.1,0.2-0.1,0.3-0.2s0.2-0.1,0.3-0.2s0.2-0.1,0.3-0.2s0.2-0.1,0.3-0.2s0.2-0.1,0.3-0.2c0.1,0,0.2-0.1,0.3-0.1
		c0.1-0.1,0.2-0.1,0.4-0.2c0.1,0,0.2-0.1,0.3-0.1s0.3-0.1,0.4-0.1c0.1,0,0.2-0.1,0.3-0.1s0.3-0.1,0.4-0.1c0.1,0,0.2-0.1,0.3-0.1
		c0.2,0,0.3-0.1,0.5-0.1c0.1,0,0.2,0,0.3-0.1c0.2,0,0.4,0,0.6-0.1c0.1,0,0.2,0,0.3,0c0.3,0,0.6,0,0.9,0c1.9,0,3.2,0.5,4,1.4
		c-0.6-0.6-1.1-1.2-1.7-1.7c-0.8-0.8-2.1-1.4-4-1.4c-0.3,0-0.6,0-0.9,0c-0.1,0-0.2,0-0.3,0c-0.2,0-0.4,0-0.6,0.1
		c-0.1,0-0.2,0-0.3,0.1c-0.2,0-0.3,0.1-0.5,0.1c-0.1,0-0.2,0.1-0.3,0.1s-0.3,0.1-0.4,0.1c-0.1,0-0.2,0.1-0.3,0.1s-0.3,0.1-0.4,0.1
		c-0.1,0-0.2,0.1-0.3,0.1c-0.1,0.1-0.3,0.1-0.4,0.2c-0.1,0-0.2,0.1-0.3,0.1c-0.1,0.1-0.2,0.1-0.3,0.2s-0.2,0.1-0.3,0.2
		s-0.2,0.1-0.3,0.2s-0.2,0.1-0.3,0.2s-0.2,0.1-0.3,0.2s-0.2,0.1-0.2,0.2c-0.1,0.1-0.2,0.1-0.3,0.2s-0.1,0.1-0.2,0.2
		c-0.1,0.1-0.2,0.2-0.3,0.2c-0.1,0.1-0.1,0.1-0.2,0.2c-0.1,0.1-0.2,0.2-0.3,0.2c-0.1,0.1-0.1,0.1-0.2,0.2c-0.1,0.1-0.2,0.2-0.2,0.2
		c-0.1,0.1-0.1,0.1-0.2,0.2c-0.1,0.1-0.1,0.2-0.2,0.2c-0.1,0.1-0.1,0.1-0.2,0.2c-0.1,0.1-0.1,0.2-0.2,0.2c-0.1,0.1-0.1,0.1-0.1,0.2
		c0,0,0,0.1-0.1,0.1c-0.1,0.1-0.1,0.2-0.2,0.3l-3.3-1.9l1.7,1.7L231,30.7z"/>
	<polygon points="201.3,57.5 181.5,57.5 183.2,59.2 203,59.2 203,55.1 201.3,53.3 	"/>
	<path d="M218.2,22.7c0.1,0.1,0.2,0.3,0.3,0.4c0,0.1,0.1,0.1,0.1,0.2c0.1,0.2,0.2,0.3,0.3,0.5c0,0,0,0.1,0.1,0.1
		c0.1,0.2,0.2,0.4,0.3,0.6c0,0,0,0.1,0.1,0.1c0.1,0.2,0.1,0.3,0.2,0.5v0.1c0.1,0.2,0.1,0.4,0.2,0.6v0.1c0,0.2,0.1,0.4,0.1,0.5v0.1
		c0,0.2,0,0.4,0,0.6c0,4.1-0.1,18.6-0.2,20.8c0,0.2,0,0.5,0,0.7c0,0,0,0,0,0.1c0,0.2,0,0.5,0,0.7l0,0l0,0c0,0.1,0,0.3,0,0.4v0.1
		c0,0.1,0,0.3,0.1,0.4l0,0c0,0.1,0.1,0.2,0.1,0.4v0.1c0,0.1,0.1,0.3,0.1,0.4l0,0l0,0c0.1,0.1,0.1,0.2,0.2,0.4c0,0,0,0,0,0.1
		c0.1,0.1,0.1,0.2,0.2,0.4l0,0l0,0c0.1,0.1,0.2,0.2,0.3,0.3c0.6,0.6,1.1,1.2,1.7,1.7c-0.1-0.1-0.2-0.2-0.3-0.3c0,0,0,0-0.1-0.1
		s-0.2-0.2-0.2-0.4c0,0,0,0,0-0.1c-0.1-0.1-0.1-0.2-0.2-0.4l0,0c0-0.1-0.1-0.3-0.1-0.4v-0.1c0-0.1-0.1-0.2-0.1-0.4l0,0
		c0-0.1-0.1-0.3-0.1-0.4v-0.1c0-0.1,0-0.3,0-0.4l0,0c0-0.2,0-0.5,0-0.7c0,0,0,0,0-0.1c0-0.2,0-0.5,0-0.7c0-2.2,0.1-16.7,0.2-20.8
		c0-0.2,0-0.4,0-0.6c0,0,0,0,0-0.1v-0.1c0-0.2-0.1-0.3-0.1-0.5v-0.1c0-0.2-0.1-0.4-0.2-0.6v-0.1c0-0.1-0.1-0.2-0.1-0.2
		c0-0.1-0.1-0.2-0.1-0.3c0,0,0-0.1-0.1-0.1c-0.1-0.2-0.2-0.4-0.3-0.6c0,0,0-0.1-0.1-0.1c-0.1-0.2-0.2-0.3-0.3-0.5l-0.1-0.1l-0.1-0.1
		c-0.1-0.1-0.2-0.2-0.2-0.3c0-0.1-0.1-0.1-0.1-0.2c-0.2-0.2-0.3-0.4-0.5-0.5c-0.6-0.6-1.1-1.2-1.7-1.7c0.2,0.2,0.3,0.4,0.5,0.5
		C218.1,22.5,218.1,22.6,218.2,22.7z"/>
	<polygon points="224.1,57.5 204.2,57.5 205.9,59.2 225.8,59.2 225.9,55 224.1,53.3 	"/>
	<path d="M237.3,51.3c0,0,0-0.1-0.1-0.1c-0.1-0.2-0.2-0.4-0.3-0.5l-0.1-0.1c-0.1-0.2-0.2-0.4-0.3-0.7c0-0.1,0-0.1-0.1-0.2
		c-0.1-0.2-0.1-0.4-0.2-0.6c0-0.1,0-0.2-0.1-0.2c0-0.2-0.1-0.4-0.1-0.5s0-0.1,0-0.2c0-0.2-0.1-0.5-0.1-0.7c0-0.3,0-0.6,0-0.8
		c0-0.3,0-0.7,0-1s0.1-0.6,0.1-0.8c0,0,0,0,0-0.1c0.1-0.5,0.2-1,0.3-1.5c0-0.1,0.1-0.1,0.1-0.2c0-0.1,0.1-0.3,0.1-0.4
		c0-0.1,0.1-0.2,0.1-0.2c0.1-0.1,0.1-0.2,0.2-0.3c0-0.1,0.1-0.1,0.1-0.2c0.1-0.1,0.1-0.2,0.2-0.3c0.1-0.1,0.1-0.2,0.2-0.3
		c0-0.1,0.1-0.1,0.1-0.2c0.1-0.1,0.1-0.2,0.2-0.3c0.1-0.1,0.1-0.1,0.1-0.2c0-0.1,0.1-0.1,0.1-0.1c0.1-0.1,0.1-0.1,0.2-0.2l0.1-0.1
		c0.1-0.1,0.1-0.1,0.2-0.2l0.1-0.1c0.1-0.1,0.1-0.1,0.2-0.2l0.1-0.1c0.1,0,0.1-0.1,0.2-0.1l0.1-0.1c0.1,0,0.1-0.1,0.2-0.1
		c0,0,0.1,0,0.1-0.1c0.1,0,0.1-0.1,0.2-0.1h0.1c0.1,0,0.2-0.1,0.2-0.1c1.5-0.8,2.9-1.1,4.2-1.1c0.7,0,1.4,0.1,2,0.3l-1.7-1.7
		c-0.6-0.2-1.2-0.3-2-0.3c-1.3,0-2.7,0.3-4.2,1.1c-0.1,0-0.1,0.1-0.2,0.1c0,0,0,0-0.1,0s-0.1,0.1-0.2,0.1c0,0-0.1,0-0.1,0.1
		c-0.1,0-0.1,0.1-0.2,0.1l-0.1,0.1c-0.1,0-0.1,0.1-0.2,0.1l-0.1,0.1c-0.1,0.1-0.1,0.1-0.2,0.2l-0.1,0.1c-0.1,0.1-0.1,0.1-0.2,0.2
		l-0.1,0.1c-0.1,0.1-0.1,0.1-0.2,0.2L236,39c0,0,0,0,0,0.1l-0.1,0.1c-0.1,0.1-0.1,0.2-0.2,0.3c0,0.1-0.1,0.1-0.1,0.2
		c-0.1,0.1-0.1,0.2-0.2,0.3c0,0,0,0.1-0.1,0.1c0,0.1-0.1,0.1-0.1,0.2c0,0.1-0.1,0.1-0.1,0.2c-0.1,0.1-0.1,0.2-0.2,0.3
		c0,0.1-0.1,0.2-0.1,0.2v0.1c0,0.1-0.1,0.2-0.1,0.3s-0.1,0.1-0.1,0.2c-0.1,0.2-0.1,0.4-0.2,0.7c0,0,0,0,0,0.1
		c-0.1,0.2-0.1,0.5-0.1,0.8c0,0.1,0,0.2,0,0.3c0,0.2,0,0.4-0.1,0.6l0,0l0,0c0,0.3,0,0.6,0,0.9c0,0.3,0,0.6,0,0.8l0,0
		c0,0.2,0.1,0.5,0.1,0.7c0,0.1,0,0.1,0,0.2c0,0.2,0.1,0.4,0.1,0.5s0,0.2,0.1,0.2c0.1,0.2,0.1,0.4,0.2,0.5c0,0.1,0,0.1,0.1,0.2l0,0
		c0.1,0.2,0.2,0.4,0.3,0.6c0,0.1,0.1,0.1,0.1,0.2c0.1,0.2,0.2,0.4,0.3,0.5c0,0,0,0.1,0.1,0.1c0.1,0.2,0.2,0.3,0.3,0.5
		c0,0,0,0.1,0.1,0.1l0.1,0.1c0.1,0.2,0.3,0.4,0.5,0.5l0,0c0.6,0.6,1.1,1.2,1.7,1.7c-0.2-0.2-0.3-0.3-0.5-0.5l-0.1-0.1
		C237.6,51.7,237.4,51.5,237.3,51.3z"/>
	<path d="M254.3,22.4c0.1,0.1,0.2,0.2,0.2,0.3l0.1,0.1c0.1,0.1,0.2,0.2,0.2,0.4c0,0.1,0.1,0.1,0.1,0.2c0.1,0.1,0.1,0.2,0.2,0.3
		c0,0.1,0.1,0.1,0.1,0.2c0.1,0.1,0.1,0.2,0.1,0.3c0,0.1,0.1,0.1,0.1,0.2s0.1,0.2,0.1,0.3c0.1,0.2,0.2,0.5,0.2,0.7v0.1
		c0.1,0.3,0.1,0.5,0.2,0.8c0,0.1,0,0.1,0,0.2c0,0.2,0.1,0.5,0.1,0.7v0.1c0,0.3,0.1,0.6,0.1,0.8c0,0.1,0,0.2,0,0.2c0,0.2,0,0.3,0,0.5
		c0,0.1,0,0.2,0,0.3c0,0.2,0,0.3,0,0.5c0,0.1,0,0.2,0,0.3c0,0.2,0,0.4,0,0.5s0,0.1,0,0.2c0,0.2,0,0.5,0,0.8l-0.1,8.5l-0.1,8.5
		c0,0.1,0,0.2,0,0.3v0.1v0.1l0,0c0,0.1,0,0.3,0.1,0.4c0,0,0,0,0,0.1s0.1,0.2,0.1,0.3l0,0l0,0c0,0,0,0.1,0.1,0.1l0,0
		c0,0,0,0.1,0.1,0.1l0,0l0,0l0.1,0.1c0.6,0.6,1.1,1.2,1.7,1.7l-0.1-0.1l0,0l-0.1-0.1c0,0,0,0,0-0.1v-0.1l0,0c0-0.1-0.1-0.2-0.1-0.3
		c0,0,0,0,0-0.1s0-0.2-0.1-0.4c0-0.1,0-0.1,0-0.2v-0.1c0-0.1,0-0.2,0-0.3l0.1-8.5l0.1-8.5c0-0.2,0-0.5,0-0.7c0-0.1,0-0.2,0-0.2
		c0-0.2,0-0.3,0-0.5c0-0.1,0-0.2,0-0.3c0-0.2,0-0.3,0-0.5c0-0.1,0-0.2,0-0.3c0-0.2,0-0.3,0-0.5c0-0.1,0-0.1,0-0.2c0,0,0,0,0-0.1
		c0-0.3-0.1-0.6-0.1-0.8c0-0.1,0-0.1,0-0.2c0-0.2-0.1-0.5-0.1-0.7c0-0.1,0-0.1,0-0.2c-0.1-0.3-0.1-0.5-0.2-0.8v-0.1
		c-0.1-0.2-0.1-0.5-0.2-0.7V26c0-0.1,0-0.1-0.1-0.2c0-0.1-0.1-0.1-0.1-0.2s-0.1-0.2-0.2-0.3c0-0.1-0.1-0.1-0.1-0.2
		c-0.1-0.1-0.1-0.2-0.2-0.3c0-0.1-0.1-0.1-0.1-0.2c-0.1-0.1-0.2-0.3-0.3-0.4c0,0,0-0.1-0.1-0.1l0,0c-0.1-0.1-0.2-0.2-0.3-0.3
		l-0.1-0.1c-0.1-0.1-0.2-0.2-0.3-0.3l-0.1-0.1c-0.6-0.6-1.1-1.2-1.7-1.7c0.2,0.2,0.3,0.3,0.4,0.5C254.2,22.2,254.3,22.3,254.3,22.4z
		"/>
	<path d="M261.8,56.4C261.8,56.3,261.8,56.3,261.8,56.4c0.1-0.2,0.2-0.2,0.3-0.3l0,0l0,0c0.1-0.1,0.1-0.2,0.2-0.2l0,0
		c0.1-0.1,0.1-0.2,0.2-0.2l0,0c0-0.1,0.1-0.1,0.1-0.2c0,0,0,0,0.1-0.1l0.1-0.1c0,0,0,0,0.1-0.1l0.1-0.1c0,0,0,0,0-0.1l0.1-0.1l0,0
		c0.1-0.1,0.1-0.2,0.2-0.3l-0.9-3.7l-1.7-1.7l0.9,3.7c0,0.1-0.1,0.1-0.1,0.2c0,0,0,0.1-0.1,0.1c0,0,0,0,0,0.1l-0.1,0.1
		c0,0,0,0,0,0.1l-0.1,0.1c0,0,0,0,0,0.1s-0.1,0.1-0.1,0.2c0,0,0,0,0,0.1s-0.1,0.1-0.1,0.2l0,0c-0.1,0.1-0.1,0.2-0.2,0.2l0,0
		c-0.1,0.1-0.1,0.1-0.2,0.2c0,0,0,0,0,0.1c-0.1,0.1-0.1,0.2-0.2,0.2c0,0,0,0-0.1,0.1s-0.2,0.2-0.3,0.3l0,0c-0.1,0.1-0.2,0.2-0.3,0.3
		l-0.1,0.1c-0.1,0.1-0.2,0.2-0.3,0.3l0,0c-0.1,0.1-0.2,0.2-0.3,0.3c0,0-0.1,0-0.1,0.1c-0.1,0.1-0.2,0.2-0.3,0.2c0,0-0.1,0-0.1,0.1
		c-0.1,0.1-0.3,0.2-0.4,0.3c0,0-0.1,0-0.1,0.1c-0.1,0.1-0.2,0.1-0.4,0.2c0,0-0.1,0-0.1,0.1c-0.1,0.1-0.3,0.2-0.4,0.3l0,0
		c-0.1,0.1-0.3,0.1-0.5,0.2c0,0-0.1,0-0.1,0.1c-0.1,0.1-0.3,0.1-0.4,0.2H256c-0.2,0.1-0.3,0.1-0.5,0.2h-0.1c-0.1,0-0.3,0.1-0.4,0.1
		h-0.1c-0.2,0-0.4,0.1-0.6,0.1h-0.1c-0.2,0-0.3,0-0.5,0.1c-0.1,0-0.1,0-0.2,0c-0.2,0-0.4,0-0.6,0c-3.1,0-5.2-1.4-6.5-2.7
		c0.1-0.1,0.1-0.2,0.2-0.3l-1.7-1.7c-0.1,0.1-0.2,0.2-0.3,0.4c0,0.1-0.1,0.1-0.1,0.2c-0.1,0.1-0.1,0.1-0.2,0.2
		c-0.1,0.1-0.2,0.2-0.3,0.4c0,0,0,0-0.1,0.1s-0.2,0.2-0.3,0.3l-0.1,0.1c-0.1,0.1-0.2,0.2-0.2,0.2c-0.1,0-0.1,0.1-0.2,0.1
		c-0.1,0.1-0.2,0.2-0.3,0.2s-0.1,0.1-0.2,0.1c-0.1,0.1-0.2,0.1-0.3,0.2c-0.1,0-0.1,0.1-0.2,0.1c-0.1,0.1-0.2,0.1-0.3,0.2
		c-0.1,0-0.1,0.1-0.2,0.1c-0.1,0.1-0.3,0.2-0.4,0.3c0,0-0.1,0-0.1,0.1c-0.2,0.1-0.4,0.2-0.6,0.3c-0.1,0-0.1,0.1-0.2,0.1
		c-0.1,0.1-0.3,0.1-0.5,0.2c-0.1,0-0.2,0.1-0.3,0.1c-0.1,0.1-0.3,0.1-0.4,0.1c-0.1,0-0.2,0.1-0.3,0.1c-0.2,0-0.3,0.1-0.5,0.1
		c-0.1,0-0.2,0-0.3,0.1c-0.2,0-0.3,0.1-0.5,0.1c-0.1,0-0.2,0-0.3,0c-0.2,0-0.4,0-0.6,0.1c-0.1,0-0.2,0-0.3,0c-0.3,0-0.6,0-1,0
		c-3.5,0-6.2-1.1-8.1-3c0.6,0.6,1.1,1.2,1.7,1.7c1.9,1.9,4.6,3,8.1,3c0.3,0,0.7,0,1,0c0.1,0,0.2,0,0.3,0c0.2,0,0.4,0,0.6-0.1
		c0.1,0,0.2,0,0.3,0c0.2,0,0.3-0.1,0.5-0.1c0.1,0,0.2,0,0.3-0.1c0.2,0,0.3-0.1,0.5-0.1c0.1,0,0.2-0.1,0.3-0.1c0.2,0,0.3-0.1,0.4-0.1
		c0.1,0,0.2-0.1,0.3-0.1c0.2-0.1,0.3-0.1,0.5-0.2c0.1,0,0.1-0.1,0.2-0.1c0.2-0.1,0.4-0.2,0.6-0.3c0,0,0.1,0,0.1-0.1
		c0.2-0.1,0.3-0.2,0.5-0.3c0.1,0,0.1-0.1,0.2-0.1c0.1-0.1,0.2-0.1,0.3-0.2c0.1,0,0.1-0.1,0.2-0.1c0.1-0.1,0.2-0.1,0.3-0.2
		c0.1,0,0.1-0.1,0.2-0.1c0.1-0.1,0.2-0.2,0.3-0.2s0.1-0.1,0.2-0.1c0.1-0.1,0.2-0.2,0.2-0.2l0.1-0.1c0.1-0.1,0.2-0.2,0.3-0.3l0.1-0.1
		c0.1-0.1,0.2-0.2,0.3-0.4l0,0c0.1-0.1,0.1-0.2,0.2-0.2l0.1-0.1c0,0,0,0,0.1-0.1c0.6,0.6,1.1,1.2,1.7,1.7c1.1,1.1,2.9,2.4,5.4,2.6
		c0.4,0,0.7,0.1,1.1,0.1c0.2,0,0.4,0,0.6,0c0.1,0,0.1,0,0.2,0c0.2,0,0.3,0,0.5-0.1h0.1c0.2,0,0.4-0.1,0.6-0.1h0.1
		c0.2,0,0.3-0.1,0.4-0.1h0.1c0.2-0.1,0.4-0.1,0.5-0.2h0.1c0.1-0.1,0.3-0.1,0.4-0.2c0,0,0.1,0,0.1-0.1c0.2-0.1,0.3-0.1,0.5-0.2l0,0
		c0.2-0.1,0.3-0.2,0.5-0.3c0,0,0.1,0,0.1-0.1c0.1-0.1,0.2-0.1,0.4-0.2c0,0,0,0,0.1,0c0.1-0.1,0.3-0.2,0.4-0.3c0,0,0,0,0.1-0.1
		s0.2-0.2,0.3-0.2c0,0,0.1,0,0.1-0.1c0.1-0.1,0.2-0.2,0.4-0.3l0,0c0.1-0.1,0.2-0.2,0.3-0.3c0,0,0,0,0.1-0.1s0.2-0.2,0.3-0.3l0,0
		C261.6,56.6,261.7,56.5,261.8,56.4z"/>
</g>
<g>
	<path class="st0" d="M17.1,0C25,0,29.5,3.7,29.8,4.1c0.6-0.6,2.3-2.4,2.3-3.5h4L36,14.9h-3.5c-0.3-0.5-5.7-10.6-15.4-10.6
		c-5.9,0-7.8,3.9-7.7,6.2c0.1,2.5,1,6.9,12.6,10c14.7,3.9,18.4,12.9,18.4,20.7c-0.1,7.8-5.9,16.7-19.7,16.7
		c-9.5,0-13.2-4.4-13.8-4.6c-0.6,0.7-2.4,3-2.7,4.3H0.3l0.1-17.4h3.8c1,3.5,7.3,12.3,16.2,12.3s10.1-5.2,10.1-8.1s-2.2-6.4-12.8-9.7
		c-10.3-3.2-17.8-9-17.7-19C0.1,5.7,9.2,0,17.1,0z"/>
</g>
<g>
	<path class="st0" d="M74.8,45.9l3.1,2.2c-2.8,6.2-8.3,10.1-16,10.1c-9.1,0-19.6-8.9-19.5-19.9c0-2.5,0.4-4.9,1.1-7.1
		c2.4-7.6,10.6-12.9,17.7-12.9c10,0,14.7,8.1,16.6,16.4l-21.9,6.2c0.7,3.4,3.5,10.6,9.9,10.6C71,51.5,73.7,47.6,74.8,45.9z
		 M54.2,30.5c0,1.8,0.1,3.7,0.8,6.1c0.4-0.1,8.7-2.3,9.2-2.5c2.4-1,2.8-2.2,2.5-4.9c-0.6-4.9-3.8-7.4-6.8-7.4c-0.4,0-0.7,0-1,0.1
		C56.9,22.4,54.2,24.8,54.2,30.5"/>
</g>
<g>
	<path class="st0" d="M128.2,18.5c7.1,0,11.3,5.8,11.2,10.2c0,1.8,0,4.6-0.1,7.5c0,4.3-0.1,11.2-0.1,11.9c0,2.4,0.2,5.2,3.4,5.2h0.6
		v4.2h-19.5v-4.2h0.7c3,0,3.2-3.7,3.3-5.1c0-0.7,0.1-7.9,0.1-11.9c0-3.3,0-4.1,0-4.2c0-1.1,0.1-6.1-4.1-6.1c-4.9,0-7.3,4.7-7.7,5.5
		c0,0.1,0,1,0,4.6c0,3-0.1,9.2-0.1,11.9c0,2.4,0.2,5.2,3.7,5.2c0.5,0,0.5,0,0.5,0v4.2H101v-4.2h0.6c3.2,0,3.2-3.1,3.2-5.1
		c0-1.1,0.1-8.2,0.1-11.9c0-2.7,0-3,0-3.3c0-0.7,0.1-6.9-3.7-6.9c-4.7,0-6.9,5.4-7.2,6c0,0,0,0.9,0,4.1c0,3.7-0.1,10.6-0.1,11.9
		c0,3.5,0.6,5.2,3.1,5.2h0.5v4.2H78.1v-4.2H79c3.4,0,3.6-4,3.6-5.2c0-0.8,0.1-8,0.1-11.9c0-2.2,0-3.4,0-4.6c0-3-2-3.1-2.8-3.1
		c-0.1,0-0.1,0-0.2,0c-0.7,0-1.6,0-1.7,0v-3.9l10-4.9h6.1v5.8c0.7-0.8,3.9-6.9,11.2-6.9c7.3,0,10.2,6.7,10.3,7.1
		C116.5,24.9,121.1,18.5,128.2,18.5z"/>
</g>
<g>
	<path class="st0" d="M179.9,48.9l0.9,3.7c-0.8,1.2-3.5,5.6-9.1,5.6c-5.2,0-7.7-4.1-8-4.7c-1.4,1.8-3.7,4.7-9.4,4.7
		c-7.6,0-11.4-5.2-11.4-12.2c0-5.2,3.3-9.3,7.3-11c5.4-2.3,9-2.6,13.4-3.1c0-3.3,0.2-8.1-5.5-8.1c-4.9,0-7.8,2.9-9.6,5.1l-3.3-1.9
		c1.7-2.5,5.8-8.9,15.4-8.9c14,0,15.1,6.3,15,13.1l-0.1,8.5l-0.1,8.6c0,1.8,0.7,2,1.4,2C178.1,50.5,179,50,179.9,48.9z M163.6,48.4
		l0.1-8.2v-4c-0.6-0.2-1.2-0.3-1.9-0.3c-1.3,0-2.7,0.3-4.1,1.1c-1.2,0.6-4,2.4-4,7.7c0,3.4,2.1,7.3,5.2,7.3c0.1,0,0.3,0,0.4,0
		C162.6,51.7,163.2,49.4,163.6,48.4"/>
</g>
<g>
	<path class="st0" d="M208.9,18.6c6.6,0,11,4.4,11,8.5s-0.1,18.6-0.2,20.8c0,2.2,0.2,5.4,3.6,5.4h0.8v4.2h-19.9v-4.1
		c0,0,0.2,0,0.6,0c2.9,0,3.3-3.2,3.3-4.8c0-3,0.1-14.9,0.1-16.3c0-1.5,0-5.8-3.7-5.8c-4.5,0-6.5,4.7-7,6c0,0.7-0.1,13.9-0.1,16.5
		c0,1.8,0.1,4.4,3.2,4.4c0.1,0,0.5,0,0.6,0v4.1h-19.8v-4.2c0,0,0.2,0,1,0c3.4,0,3.4-3.2,3.4-4.5c0-3.4,0.1-15.4,0.1-16.5
		c0-1.1-0.2-3.7-4-3.7h-0.6v-4l10.6-5.1h5.5v5.8C199.3,23.1,202.4,18.6,208.9,18.6z"/>
</g>
<g>
	<path class="st0" d="M260.6,48.9l0.9,3.7c-0.8,1.2-3.5,5.6-9,5.6c-5.2,0-7.7-4.1-8-4.7c-1.4,1.8-3.7,4.7-9.4,4.7
		c-7.6,0-11.4-5.2-11.4-12.2c0-5.2,3.3-9.3,7.3-11c5.4-2.3,9-2.6,13.4-3.1c0-3.3,0.2-8.1-5.5-8.1c-4.9,0-7.8,2.9-9.6,5.1L226,27
		c1.7-2.5,5.8-8.9,15.4-8.9c14,0,15.1,6.3,15,13.1l-0.1,8.5l-0.1,8.6c0,1.8,0.7,2,1.4,2C258.8,50.5,259.7,50,260.6,48.9z
		 M244.3,48.4l0.1-8.2v-4c-0.6-0.2-1.2-0.3-2-0.3c-1.3,0-2.7,0.3-4.2,1.1c-1.1,0.6-4,2.4-4,7.7c0,3.4,2.1,7.3,5.2,7.3
		c0.1,0,0.3,0,0.4,0C243.3,51.7,243.9,49.4,244.3,48.4"/>
</g>
</svg>
