<?xml version="1.0" encoding="utf-8"?>
<!-- Generator: Adobe Illustrator 18.0.0, SVG Export Plug-In . SVG Version: 6.00 Build 0)  -->
<!DOCTYPE svg PUBLIC "-//W3C//DTD SVG 1.1//EN" "http://www.w3.org/Graphics/SVG/1.1/DTD/svg11.dtd">
<svg version="1.1" id="Layer_1" xmlns="http://www.w3.org/2000/svg" xmlns:xlink="http://www.w3.org/1999/xlink" x="0px" y="0px"
	 viewBox="0 0 159 35.4" enable-background="new 0 0 159 35.4" xml:space="preserve">
<g>
	<g>
		<path fill="#606060" d="M10.4,0c4.8,0,7.5,2.2,7.7,2.5c0.4-0.4,1.4-1.5,1.4-2.1h2.4l-0.1,8.7h-2.1c-0.2-0.3-3.5-6.4-9.4-6.4
			C6.8,2.6,5.7,5,5.7,6.4c0.1,1.5,0.6,4.2,7.7,6.1c8.9,2.4,11.2,7.8,11.2,12.6c-0.1,4.7-3.6,10.2-12,10.2c-5.8,0-8-2.7-8.4-2.8
			c-0.4,0.4-1.5,1.8-1.6,2.6H0.2l0.1-10.6h2.3c0.6,2.1,4.4,7.5,9.8,7.5s6.1-3.2,6.1-4.9s-1.3-3.9-7.8-5.9C4.5,19.1-0.1,15.6,0,9.5
			C0.1,3.5,5.6,0,10.4,0z"/>
	</g>
	<g>
		<path fill="#606060" d="M45.5,27.9l1.9,1.3c-1.7,3.8-5,6.1-9.7,6.1c-5.5,0-11.9-5.4-11.9-12.1c0-1.5,0.2-3,0.7-4.3
			c1.5-4.6,6.4-7.8,10.8-7.8c6.1,0,8.9,4.9,10.1,10L34,24.9c0.4,2.1,2.1,6.4,6,6.4C43.2,31.3,44.8,28.9,45.5,27.9z M32.9,18.5
			c0,1.1,0.1,2.2,0.5,3.7c0.2-0.1,5.3-1.4,5.6-1.5c1.5-0.6,1.7-1.3,1.5-3c-0.4-3-2.3-4.5-4.1-4.5c-0.2,0-0.4,0-0.6,0.1
			C34.6,13.6,32.9,15.1,32.9,18.5"/>
	</g>
	<g>
		<path fill="#606060" d="M77.9,11.2c4.3,0,6.9,3.5,6.8,6.2c0,1.1,0,2.8-0.1,4.6c0,2.6-0.1,6.8-0.1,7.2c0,1.5,0.1,3.2,2.1,3.2h0.4
			V35H75.2v-2.6h0.4c1.8,0,1.9-2.2,2-3.1c0-0.4,0.1-4.8,0.1-7.2c0-2,0-2.5,0-2.6c0-0.7,0.1-3.7-2.5-3.7c-3,0-4.4,2.9-4.7,3.3
			c0,0.1,0,0.6,0,2.8c0,1.8-0.1,5.6-0.1,7.2c0,1.5,0.1,3.2,2.2,3.2c0.3,0,0.3,0,0.3,0v2.6H61.4v-2.6h0.4c1.9,0,1.9-1.9,1.9-3.1
			c0-0.7,0.1-5,0.1-7.2c0-1.6,0-1.8,0-2c0-0.4,0.1-4.2-2.2-4.2c-2.9,0-4.2,3.3-4.4,3.6c0,0,0,0.5,0,2.5c0,2.2-0.1,6.4-0.1,7.2
			c0,2.1,0.4,3.2,1.9,3.2h0.3v2.6H47.5v-2.6H48c2.1,0,2.2-2.4,2.2-3.2c0-0.5,0.1-4.9,0.1-7.2c0-1.3,0-2.1,0-2.8
			c0-1.8-1.2-1.9-1.7-1.9c-0.1,0-0.1,0-0.1,0c-0.4,0-1,0-1,0v-2.4l6.1-3h3.7v3.5c0.4-0.5,2.4-4.2,6.8-4.2s6.2,4.1,6.3,4.3
			C70.8,15.1,73.6,11.2,77.9,11.2z"/>
	</g>
	<g>
		<path fill="#606060" d="M109.4,29.7l0.5,2.2c-0.5,0.7-2.1,3.4-5.5,3.4c-3.2,0-4.7-2.5-4.9-2.9c-0.9,1.1-2.2,2.9-5.7,2.9
			c-4.6,0-6.9-3.2-6.9-7.4c0-3.2,2-5.7,4.4-6.7c3.3-1.4,5.5-1.6,8.1-1.9c0-2,0.1-4.9-3.3-4.9c-3,0-4.7,1.8-5.8,3.1l-2-1.2
			c1-1.5,3.5-5.4,9.4-5.4c8.5,0,9.2,3.8,9.1,8l-0.1,5.2l-0.1,5.2c0,1.1,0.4,1.2,0.9,1.2C108.3,30.7,108.8,30.4,109.4,29.7z
			 M99.5,29.4l0.1-5V22c-0.4-0.1-0.7-0.2-1.2-0.2c-0.8,0-1.6,0.2-2.5,0.7c-0.7,0.4-2.4,1.5-2.4,4.7c0,2.1,1.3,4.4,3.2,4.4
			c0.1,0,0.2,0,0.2,0C98.8,31.4,99.2,30,99.5,29.4"/>
	</g>
	<g>
		<path fill="#606060" d="M127,11.3c4,0,6.7,2.7,6.7,5.2s-0.1,11.3-0.1,12.6c0,1.3,0.1,3.3,2.2,3.3h0.5V35h-12.1v-2.5
			c0,0,0.1,0,0.4,0c1.8,0,2-1.9,2-2.9c0-1.8,0.1-9.1,0.1-9.9c0-0.9,0-3.5-2.2-3.5c-2.7,0-4,2.9-4.3,3.6c0,0.4-0.1,8.4-0.1,10
			c0,1.1,0.1,2.7,1.9,2.7c0.1,0,0.3,0,0.4,0V35h-12v-2.6c0,0,0.1,0,0.6,0c2.1,0,2.1-1.9,2.1-2.7c0-2.1,0.1-9.4,0.1-10
			c0-0.7-0.1-2.2-2.4-2.2h-0.4V15l6.4-3.1h3.3v3.5C121.2,14,123,11.3,127,11.3z"/>
	</g>
	<g>
		<path fill="#606060" d="M158.4,29.7L159,32c-0.5,0.7-2.1,3.4-5.5,3.4c-3.2,0-4.7-2.5-4.9-2.9c-0.9,1.1-2.2,2.9-5.7,2.9
			c-4.6,0-6.9-3.2-6.9-7.4c0-3.2,2-5.7,4.4-6.7c3.3-1.4,5.5-1.6,8.1-1.9c0-2,0.1-4.9-3.3-4.9c-3,0-4.7,1.8-5.8,3.1l-2-1.2
			c1-1.5,3.5-5.4,9.4-5.4c8.5,0,9.2,3.8,9.1,8l-0.1,5.2l-0.1,5.2c0,1.1,0.4,1.2,0.9,1.2C157.3,30.7,157.9,30.4,158.4,29.7z
			 M148.5,29.4l0.1-5V22c-0.4-0.1-0.7-0.2-1.2-0.2c-0.8,0-1.6,0.2-2.6,0.7c-0.7,0.4-2.4,1.5-2.4,4.7c0,2.1,1.3,4.4,3.2,4.4
			c0.1,0,0.2,0,0.2,0C147.9,31.4,148.3,30,148.5,29.4"/>
	</g>
</g>
</svg>
