<?xml version="1.0" encoding="utf-8"?>
<!-- Generator: Adobe Illustrator 18.0.0, SVG Export Plug-In . SVG Version: 6.00 Build 0)  -->
<!DOCTYPE svg PUBLIC "-//W3C//DTD SVG 1.1//EN" "http://www.w3.org/Graphics/SVG/1.1/DTD/svg11.dtd">
<svg version="1.1" id="Layer_1" xmlns="http://www.w3.org/2000/svg" xmlns:xlink="http://www.w3.org/1999/xlink" x="0px" y="0px"
	 viewBox="0 0 137.4 38.7" enable-background="new 0 0 137.4 38.7" xml:space="preserve">
<g>
	<g>
		<path fill="#606060" d="M17.7,38.7C6,38.7,1,34.8,0,25.9h7.4c0.8,4.2,3.4,6.1,11.3,6.1c6.2,0,8-1.3,8-4.1c0-3.2-1.9-4.4-11-5.6
			C4.5,20.9,1,16.7,1,10.1C1,4.2,5.7,0,16.7,0c10.5,0,15.7,3.9,16.4,12.5h-7.5c-0.7-4.2-2.8-5.9-9.3-5.9c-5.9,0-7.9,1.5-7.9,3.9
			c0,2.2,1.6,4.3,10.1,5.4c12.1,1.6,15.7,4.9,15.7,11.6C34.3,34.9,28.6,38.7,17.7,38.7z"/>
		<path fill="#606060" d="M67.8,27.7c-0.7,7.4-6.8,10.9-15.5,10.9c-9.1,0-15.2-3.8-15.7-11.1c-0.1-1.4-0.2-2.2-0.2-3.7
			c0-1.5,0.1-3,0.2-3.7c0.5-7.2,7-11,15.7-11c9,0,14.8,3.8,15.5,10.9c0.1,0.8,0.2,2.2,0.2,3.8C68,25.5,67.9,26.7,67.8,27.7z
			 M60.2,19.3c-1-2.3-3.9-3.5-7.9-3.5c-4,0-6.8,1.3-7.9,3.5c-0.7,1.4-0.8,2.9-0.8,4.6c0,1.7,0.1,3.7,0.6,4.7c1,2.1,3.5,3.6,8,3.6
			c4.6,0,6.9-1.5,7.9-3.7c0.5-1.1,0.7-3.1,0.7-4.6C60.9,22.2,60.9,20.7,60.2,19.3z"/>
		<path fill="#606060" d="M137.2,27.7c-0.7,7.4-6.8,10.9-15.5,10.9c-9.1,0-15.2-3.8-15.7-11.1c-0.1-1.4-0.2-2.2-0.2-3.7
			c0-1.5,0.1-3,0.2-3.7c0.5-7.2,7-11,15.7-11c9,0,14.8,3.8,15.5,10.9c0.1,0.8,0.2,2.2,0.2,3.8C137.4,25.5,137.3,26.7,137.2,27.7z
			 M129.7,19.3c-1-2.3-3.9-3.5-7.9-3.5c-4,0-6.8,1.3-7.9,3.5c-0.7,1.4-0.8,2.9-0.8,4.6c0,1.7,0.1,3.7,0.6,4.7c1,2.1,3.5,3.6,8,3.6
			c4.6,0,6.9-1.5,7.9-3.7c0.5-1.1,0.7-3.1,0.7-4.6C130.3,22.2,130.3,20.7,129.7,19.3z"/>
	</g>
	<path fill="#606060" d="M95.7,38.4V27.6H78.7v10.8h-7.5V0.8h7.5v19.6h17.1V0.8h7.5v37.6H95.7z"/>
</g>
</svg>
