<?xml version="1.0" encoding="utf-8"?>
<!-- Generator: Adobe Illustrator 18.0.0, SVG Export Plug-In . SVG Version: 6.00 Build 0)  -->
<!DOCTYPE svg PUBLIC "-//W3C//DTD SVG 1.1//EN" "http://www.w3.org/Graphics/SVG/1.1/DTD/svg11.dtd">
<svg version="1.1" id="Layer_1" xmlns="http://www.w3.org/2000/svg" xmlns:xlink="http://www.w3.org/1999/xlink" x="0px" y="0px"
	 viewBox="0 0 187.2 41.2" enable-background="new 0 0 187.2 41.2" xml:space="preserve">
<rect x="4" y="24.6" fill="#FFFFFF" width="0.4" height="0.7"/>
<g>
	<path fill="#606060" d="M187,31.1l0.2-5.6h-0.8c-0.7,3-1.4,4.8-5.4,4.8h-2.5v-7.5c2.5,0,3.2,0.8,3.5,3.3h0.8v-7.3h-0.8
		c-0.5,2.3-1,3.1-3.5,3.1v-7.1h2.4c2.6,0,3.7,0.9,4.7,3.9h0.9l-0.2-4.6h-14v0.8h1.8v15.6h-2v0.8L187,31.1L187,31.1z M170.2,31.1
		l0.3-5.6h-0.7c-0.8,2.5-1.9,4.8-4.7,4.8h-2.9V14.8h2.3V14h-8.3v0.8h1.7v15.6h-1.7v0.8H170.2L170.2,31.1z M146.9,31.1
		c1.4,0,3.1,0,4.3-0.7c1.5-0.7,2.8-2,2.8-3.9c0-3.1-3.3-4.3-5.9-4.4v-0.1c3.9-0.7,5.2-2.5,5-4.4c-0.2-2.7-3.2-3.8-5.4-3.8h-9.5v0.8
		h1.8v15.6h-1.7v0.8C138.2,31.1,146.9,31.1,146.9,31.1z M144.3,14.8h1.7c2.6,0,2.7,0.2,2.7,3.3c0,3.4-0.6,3.8-3.3,3.8h-1.1
		L144.3,14.8L144.3,14.8z M144.3,30.3v-7.8h1.1c3.6,0,3.9,0.8,3.9,3.9c0,1.8,0.4,3.9-1.9,3.9L144.3,30.3L144.3,30.3z M136.2,31.1
		v-0.8H134V14.8h2.1V14h-8.3v0.8h1.9v15.6h-1.9v0.8H136.2L136.2,31.1z M124,15.5c0-0.5,0.4-0.7,1.1-0.7h1.1V14h-5.4v0.8h0.7
		c0.6,0,1.7,0.2,1.7,0.7v8.7l-7.2-10.1h-6.8v0.8h0.8c1.5,0,1.3,0.3,1.3,1.6V29c0,0.7-0.1,1.3-0.9,1.4h-1.3v0.8h5.6v-0.8h-1.5
		c-0.6-0.1-1-0.3-1-0.9V16.3l10.9,15.2h0.6L124,15.5L124,15.5z M107.3,31.1l0.2-5.6h-0.8c-0.7,3-1.4,4.8-5.4,4.8h-2.5v-7.5
		c2.5,0,3.2,0.8,3.5,3.3h0.8v-7.3h-0.8c-0.5,2.3-1,3.1-3.5,3.1v-7.1h2.4c2.6,0,3.7,0.9,4.7,3.9h0.9l-0.2-4.6h-14v0.8h1.8v15.6h-2
		v0.8L107.3,31.1L107.3,31.1z M74.9,19.6h0.7c0.8-3.1,1.7-5.1,5.2-4.8v15.6h-2.1v0.8h8.5v-0.8h-2.1V14.8c3.5-0.3,4.3,1.7,5.2,4.8H91
		L90.7,14H75.1L74.9,19.6z M70.3,14.8c-1-0.6-2.2-1.1-3.4-1.1c-2.9,0-5.4,2.2-5.4,5.1c0,3.9,2.5,4.9,5,5.5c2.5,0.6,5,0.8,5,3
		c0,1.6-1.3,3.4-4.1,3.4c-2.6,0-4.3-2.1-5-4.4h-0.9v5h0.9l1.3-1c1.1,0.8,2.2,1.2,3.5,1.2c4.2,0,6-3.1,6-6.1c0-3-1.3-4.3-2.8-5
		c-1.2-0.5-3.3-1-4.6-1.3c-1.3-0.3-2.3-0.7-2.3-2.2c0-1.7,2-2.5,3.4-2.5c2.2,0,4.1,2,4.4,4.2h0.8V14h-0.8L70.3,14.8z M50.2,13.6
		c-3.3,0-8.8,2.9-8.8,8.8c0,5.1,3.8,9.1,8.8,9.1s8.8-4.1,8.8-9.1C59,16.6,53.5,13.6,50.2,13.6 M46.5,20.1c0-4.6,0.9-5.7,3.7-5.7
		s3.7,1,3.7,5.7v4.3c0,5.3-0.2,6.4-3.7,6.4s-3.7-1-3.7-6.4V20.1z"/>
	<g>
		<path fill="#606060" d="M35.9,10.6c1.8,3,2.9,6.4,2.9,10.2L35,19.4c-1.5-3-4.1-5.5-7-7.5L35.9,10.6z M35.8,10.4l-7.9,1.4l0,0
			c-3.2-2.2-6.7-3.8-9.6-4.9l4-2.7c4.1,2.1,6.5,6.4,6.5,6.4h2.5V5.4C33,6.8,34.5,8.5,35.8,10.4 M21.8,4l-4,2.8
			c-2.2-0.8-4.1-1.4-5-1.6c0.8-1.1,2.2-2.1,4.7-2.1C19.2,3,20.6,3.4,21.8,4 M12.4,6c1,0.2,2.9,0.7,5.2,1.5l1.9,6.6
			c-6.7-2.2-7.2-5-7.3-6.6C12.1,7,12.3,6.6,12.4,6 M11.9,21.9c1.8,1.1,4,2,6.3,2.8c0.5,0.2,0.9,0.3,1.3,0.4l0.4,7.2
			c-2.4-1-5.1-2.3-7.6-4L11.9,21.9z M11.7,21.8l0.4,6.4c-2.3-1.6-4.4-3.4-5.9-5.7L7,17C8,19,9.7,20.5,11.7,21.8 M6.9,16.9l-0.7,5.6
			c-1.3-1.9-2.2-4.2-2.3-6.7l1.8-2.7C5.8,14.5,6.3,15.7,6.9,16.9 M6.7,6.2c-0.8,1.5-1.3,3.1-1.3,5.1c0,0.6,0.1,1.2,0.1,1.8l-1.8,2.7
			c-0.1-2.5,0.5-5.2,2-8.2c-1.7,3.1-2.4,5.8-2.3,8.4l-2.3-1.6C2.3,11.1,4.3,8.3,6.7,6.2 M1.1,14.3l2.3,1.6c0.1,2.6,0.9,4.8,2.3,6.8
			l-5.7-1c0-0.3,0-0.6,0-0.9C0.1,18.5,0.4,16.3,1.1,14.3 M0.1,21.8l5.8,1.1c1.6,2.3,3.8,4.3,6.2,6l-3.2,0.4
			c-0.1-0.2-0.2-0.4-0.2-0.6H5.9v0.9L2.4,30C1,27.6,0.2,24.8,0.1,21.8 M2.5,30.2l3.4-0.4v4.9C4.5,33.4,3.4,31.9,2.5,30.2 M8.9,29.4
			l3.4-0.4c2.3,1.6,4.9,2.9,7.1,3.9l-4.8,2.9C11.7,34,9.7,31.2,8.9,29.4 M14.9,35.9l4.9-2.9c2.9,1.3,5.4,2,6.4,2.3
			c-1,1.1-2.8,2-5.9,2C18.2,37.5,16.4,36.9,14.9,35.9 M26.6,34.6c-1-0.3-3.5-0.9-6.4-2.1l-0.4-7.2c6.2,2.2,7.6,4.4,7.6,6.4
			C27.4,32.5,27.2,33.6,26.6,34.6 M27.2,17c-1.6-0.9-3.6-1.8-5.9-2.4c-0.5-0.2-1-0.3-1.4-0.4l-1.9-6.6c3,1,6.5,2.5,9.7,4.6L27.2,17z
			 M27.4,17l0.5-4.7c2.8,1.9,5.3,4.3,6.8,7.2l-2,2.6C31.5,20.3,29.8,18.6,27.4,17 M32.7,22.3l2-2.6c1.3,2.5,1.7,5.4,1.1,8.8L34.5,29
			C34.4,26.8,33.9,24.5,32.7,22.3 M33.3,34.3c0.8-1.6,1.1-3.3,1.1-5c0-0.1,0-0.2,0-0.3l1.3-0.4c-0.3,1.3-0.6,2.6-1.2,3.9
			c0.7-1.4,1.1-2.7,1.5-3.9l0.7,0.8C35.8,31.2,34.7,32.8,33.3,34.3 M36.8,29.4L36,28.6c0.8-3.4,0.4-6.4-0.9-9l3.6,1.3
			C38.7,23.9,38.1,26.9,36.8,29.4 M38.9,20.9c0-10.8-8.7-19.5-19.4-19.5S0,10.1,0,20.9c0,10.7,8.7,19.5,19.5,19.5
			S38.9,31.6,38.9,20.9"/>
		<g>
			<g>
				<g>
					<defs>
						<circle id="SVGID_1_" cx="19.5" cy="20.9" r="19.4"/>
					</defs>
					<clipPath id="SVGID_2_">
						<use xlink:href="#SVGID_1_"  overflow="visible"/>
					</clipPath>
					<g clip-path="url(#SVGID_2_)">
						<path fill="#606060" d="M12.2,7.5c0.1,1.8,0.7,4.9,9,7.1c10.5,2.8,13.2,9.2,13.2,14.8s-4.1,11.9-13.9,11.9
							c-6.8,0-9.4-3.1-9.9-3.2C10.3,38.5,9,40.1,8.8,41H5.9V28.7h2.7c0.7,2.5,5.3,8.8,11.6,8.8c6.4,0,7.1-3.7,7.1-5.8
							s-1.6-4.6-9.1-6.9c-7.4-2.3-12.7-6.4-12.7-13.6C5.5,4.1,11.9,0,17.6,0s8.9,2.7,9.1,2.9c0.4-0.4,1.6-1.7,1.7-2.5h2.8v10.1h-2.5
							c0,0-4.1-7.6-11-7.6C13.4,3.1,12.1,5.8,12.2,7.5z"/>
					</g>
				</g>
			</g>
		</g>
	</g>
</g>
</svg>
