<?xml version="1.0" encoding="utf-8"?>
<!-- Generator: Adobe Illustrator 18.0.0, SVG Export Plug-In . SVG Version: 6.00 Build 0)  -->
<!DOCTYPE svg PUBLIC "-//W3C//DTD SVG 1.1//EN" "http://www.w3.org/Graphics/SVG/1.1/DTD/svg11.dtd">
<svg version="1.1" id="Layer_1" xmlns="http://www.w3.org/2000/svg" xmlns:xlink="http://www.w3.org/1999/xlink" x="0px" y="0px"
	 viewBox="0 0 86.9 48.2" enable-background="new 0 0 86.9 48.2" xml:space="preserve">
<g>
	<g>
		<g>
			<defs>
				<path id="SVGID_1_" d="M63.9,0.7c-0.9,0.5-1.4,1.1-1.7,1.8c0.3,0.3,0.8,0.9,1.4,1.6l0.6,0.2c0.7-0.1,1.3-0.4,1.8-0.7l0.2-0.6
					c-0.6-0.4-0.8-0.8-0.9-1.2c0-0.4-0.3-0.8-0.9-1L63.9,0.7z"/>
			</defs>
			<use xlink:href="#SVGID_1_"  overflow="visible" fill="#606060"/>
			<clipPath id="SVGID_2_">
				<use xlink:href="#SVGID_1_"  overflow="visible"/>
			</clipPath>
			<rect x="62.1" y="0.7" clip-path="url(#SVGID_2_)" fill="#606060" width="4.2" height="3.5"/>
		</g>
	</g>
	<g>
		<g>
			<defs>
				<path id="SVGID_3_" d="M67.6,14.9C67.6,14.9,67.6,14.9,67.6,14.9L67.6,14.9z M74.3,20.3l-0.1-1c0-3.2,0.1-6.5,0.1-9.7
					c0-1.1-0.1-1.8-0.4-2.2c0.3-0.1,0.6-0.2,0.9-0.4c0.7-0.3,1.4-0.5,2.1-0.7c0.7-0.2,1.4-0.3,2.1-0.4c0.7-0.1,1.4,0,1.9,0.1
					c0.6,0.2,1.1,0.4,1.4,0.8c0.4,0.4,0.6,0.9,0.8,1.5c0.2,0.6,0.3,1.2,0.4,1.9c0,0.3,0,0.7,0,1l0,0.1l0,0v0c0,0,0,0,0,0v0l0,0.1
					l0,0.3c0,0.2,0,0.3,0,0.5c0,0.7-0.1,1.4-0.3,2c-0.1,0.7-0.3,1.3-0.6,1.9c-0.5,1.2-1.2,2.3-2.2,3.2c-0.5,0.5-1,0.9-1.5,1.3
					c-0.5,0.4-1.1,0.8-1.7,1.1c-0.6,0.3-1.2,0.6-1.9,0.9c-0.3,0.1-0.5,0.2-0.8,0.3C74.5,22.1,74.4,21.2,74.3,20.3 M78.6,4.3
					c-0.8,0.2-1.5,0.5-2.2,0.9c-0.7,0.3-1.4,0.8-2,1.2c-0.3,0.2-0.6,0.4-0.9,0.7C73,6.8,72.2,6.9,71,7.2c-1.2,2.8-2.3,5.2-3.4,7.7
					c-0.8,0.9-1.5,1.9-2.7,3.3c0.2-3,0.6-5.4,0.5-7.8c0-1-0.9-2.3-1.7-2.7c-0.6-0.3-2.1,0.3-2.7,0.9C59.5,10,57.8,19.4,57,22.2
					c0.1-1.8-1.9-10.7-2.1-11.8c-0.4-2.1-0.9-3-2.8-2.4c-2,0.6-3.9,1.5-6,2.3c1.6,2.6,3.6,1.1,5.5,1c0,1.7,2.1,11.1,2.4,12.6
					c0.2,1,0.8,2.2,1.6,2.7c0.4,0.3,1.8-0.5,2.4-1.2c1.5-1.7,2.4-12.1,3.8-13.9c0.2,0.1,0.4,0.1,0.6,0.2c-0.3,3.9-0.7,7.9-0.8,11.8
					c-0.1,2.4,0.2,4.8,0.7,7.2c0.2,0.9,1.3,1.5,1.9,2.3c-0.6-11.4,0.8-12.4,3.3-18.2c0.9-1,1.8-1.9,3-3.2c0.2,1.1,0.5,1.9,0.5,2.6
					c0,4.8-0.1,9.7-0.2,14.5c-0.1,5-0.3,10-0.2,15c0,1.6,0.7,3.4,3.2,3.6c0-2.4,0-4.6,0-6.9c0.1-5,0.1-10,0.2-15.1
					c0.1,0,0.2,0,0.3,0c0.2,0,0.4-0.1,0.6-0.1c0.4-0.1,0.8-0.2,1.2-0.3c0.8-0.2,1.5-0.5,2.3-0.8c0.7-0.3,1.5-0.7,2.2-1.2
					c0.7-0.5,1.3-1,2-1.6c0.6-0.6,1.2-1.2,1.6-2c0.5-0.7,0.9-1.5,1.2-2.3c0.3-0.8,0.5-1.6,0.7-2.5c0.1-0.8,0.2-1.7,0.2-2.5
					c0-0.2,0-0.4,0-0.6l0-0.3l0-0.2l0-0.2c0-0.4-0.1-0.8-0.1-1.2c-0.1-0.8-0.3-1.7-0.7-2.5c-0.4-0.8-0.9-1.6-1.6-2.2
					c-0.4-0.3-0.8-0.6-1.2-0.7c-0.4-0.2-0.9-0.3-1.3-0.3c-0.2,0-0.5,0-0.7,0C79.9,4.1,79.2,4.2,78.6,4.3"/>
			</defs>
			<use xlink:href="#SVGID_3_"  overflow="visible" fill="#606060"/>
			<clipPath id="SVGID_4_">
				<use xlink:href="#SVGID_3_"  overflow="visible"/>
			</clipPath>
			<rect x="46.2" y="4.1" clip-path="url(#SVGID_4_)" fill="#606060" width="40.1" height="43.4"/>
		</g>
	</g>
	<g>
		<g>
			<defs>
				<polygon id="SVGID_5_" points="0.7,18.3 0.7,19.3 7.3,19.3 0.6,29 0.6,29.8 8.9,29.8 8.9,28.9 1.9,28.9 8.7,19.2 8.7,18.3 				
					"/>
			</defs>
			<use xlink:href="#SVGID_5_"  overflow="visible" fill="#606060"/>
			<clipPath id="SVGID_6_">
				<use xlink:href="#SVGID_5_"  overflow="visible"/>
			</clipPath>
			<rect x="0.6" y="18.3" clip-path="url(#SVGID_6_)" fill="#606060" width="8.2" height="11.5"/>
		</g>
	</g>
	<g>
		<g>
			<defs>
				<path id="SVGID_7_" d="M14,28.8c-0.6-0.3-1.1-0.6-1.5-1.1s-0.7-1-1-1.6c-0.2-0.6-0.3-1.3-0.3-2c0-0.7,0.1-1.4,0.3-2
					c0.2-0.6,0.6-1.2,1-1.6c0.4-0.5,0.9-0.8,1.5-1.1c0.6-0.3,1.3-0.4,2-0.4c0.7,0,1.4,0.1,2,0.4c0.6,0.3,1.1,0.6,1.5,1.1
					c0.4,0.5,0.7,1,1,1.6c0.2,0.6,0.3,1.3,0.3,2c0,0.7-0.1,1.4-0.3,2c-0.2,0.6-0.5,1.2-1,1.6c-0.4,0.5-0.9,0.8-1.5,1.1
					c-0.6,0.3-1.3,0.4-2,0.4C15.2,29.2,14.6,29,14,28.8 M13.6,18.5c-0.7,0.3-1.4,0.7-1.9,1.3c-0.5,0.5-0.9,1.2-1.2,1.9
					c-0.3,0.7-0.4,1.5-0.4,2.4c0,0.9,0.1,1.7,0.4,2.4c0.3,0.7,0.7,1.4,1.2,1.9c0.5,0.5,1.1,1,1.9,1.3c0.7,0.3,1.5,0.4,2.4,0.4
					c0.9,0,1.7-0.1,2.4-0.4c0.7-0.3,1.3-0.7,1.9-1.3c0.5-0.5,0.9-1.2,1.2-1.9c0.3-0.7,0.4-1.6,0.4-2.4c0-0.9-0.1-1.7-0.4-2.4
					c-0.3-0.7-0.7-1.4-1.2-1.9c-0.5-0.5-1.1-1-1.9-1.3C17.6,18.2,16.8,18,16,18C15.1,18,14.3,18.2,13.6,18.5"/>
			</defs>
			<use xlink:href="#SVGID_7_"  overflow="visible" fill="#606060"/>
			<clipPath id="SVGID_8_">
				<use xlink:href="#SVGID_7_"  overflow="visible"/>
			</clipPath>
			<rect x="10.1" y="18" clip-path="url(#SVGID_8_)" fill="#606060" width="11.8" height="12.1"/>
		</g>
	</g>
	<g>
		<g>
			<defs>
				<polygon id="SVGID_9_" points="32.7,18.3 32.7,28.4 32.6,28.4 25.7,18.3 24.3,18.3 24.3,29.8 25.3,29.8 25.3,19.8 25.4,19.8 
					32.3,29.8 33.7,29.8 33.7,18.3 				"/>
			</defs>
			<use xlink:href="#SVGID_9_"  overflow="visible" fill="#606060"/>
			<clipPath id="SVGID_10_">
				<use xlink:href="#SVGID_9_"  overflow="visible"/>
			</clipPath>
			<rect x="24.3" y="18.3" clip-path="url(#SVGID_10_)" fill="#606060" width="9.4" height="11.5"/>
		</g>
	</g>
	<g>
		<g>
			<defs>
				<path id="SVGID_11_" d="M40.9,19.5l2.6,6.3h-5.3L40.9,19.5z M40.4,18.3l-5,11.5h1.1l1.3-3.1h6.1l1.2,3.1h1.2l-4.8-11.5H40.4z"/>
			</defs>
			<use xlink:href="#SVGID_11_"  overflow="visible" fill="#606060"/>
			<clipPath id="SVGID_12_">
				<use xlink:href="#SVGID_11_"  overflow="visible"/>
			</clipPath>
			<rect x="35.4" y="18.3" clip-path="url(#SVGID_12_)" fill="#606060" width="10.9" height="11.5"/>
		</g>
	</g>
</g>
</svg>
